<svg width="48" height="48" viewBox="0 0 48 48" fill="none" xmlns="http://www.w3.org/2000/svg">
<path fill-rule="evenodd" clip-rule="evenodd" d="M24 30C27.3137 30 30 32.6863 30 36C30 39.3137 27.3137 42 24 42C20.6863 42 18 39.3137 18 36C18 32.6863 20.6863 30 24 30Z" fill="#E2E5E9"/>
<path d="M39 30C40.6569 30 42 31.3431 42 33C42 34.6569 40.6569 36 39 36H9C7.34315 36 6 34.6569 6 33C6 31.3431 7.34315 30 9 30H39Z" fill="#BCC0C6"/>
<path d="M24 5.5C30.7508 5.5 36.3435 10.738 36.7852 17.4743L38 36H10L11.2148 17.4743C11.6565 10.738 17.2492 5.5 24 5.5Z" fill="#BCC0C6"/>
</svg>
