<svg width="56" height="32" viewBox="0 0 56 32" fill="none" xmlns="http://www.w3.org/2000/svg">
<path d="M5.38211 12.4355C6.07568 12.4371 6.7476 12.6761 7.28517 13.1125C7.31234 13.1357 7.34629 13.1496 7.382 13.1521C7.4177 13.1546 7.45326 13.1455 7.48341 13.1263L9.03956 12.1729C9.06113 12.1597 9.07942 12.1418 9.09308 12.1206C9.10675 12.0993 9.11542 12.0753 9.11847 12.0503C9.12152 12.0252 9.11886 11.9998 9.11069 11.976C9.10252 11.9521 9.08905 11.9304 9.07128 11.9124C8.09105 10.9415 6.7647 10.3965 5.38211 10.3965C2.41451 10.3965 0 12.8934 0 15.9627C0 19.032 2.41451 21.5309 5.38211 21.5309C6.7647 21.5309 8.09105 20.9859 9.07128 20.015C9.08907 19.9969 9.10255 19.975 9.11072 19.9509C9.1189 19.9269 9.12156 19.9014 9.11852 19.8762C9.11547 19.851 9.1068 19.8268 9.09314 19.8054C9.07948 19.784 9.06117 19.7659 9.03956 19.7525L7.47945 18.8011C7.4493 18.7819 7.41374 18.7729 7.37803 18.7753C7.34232 18.7778 7.30837 18.7917 7.28121 18.8149C6.74363 19.2513 6.07172 19.4903 5.37814 19.492C3.59402 19.492 2.14293 17.9129 2.14293 15.9627C2.14293 14.0126 3.59798 12.4355 5.38211 12.4355Z" fill="white"/>
<path d="M24.366 19.4917V16.8369H29.2267C29.2714 16.8369 29.3143 16.8192 29.3459 16.7877C29.3775 16.7563 29.3952 16.7136 29.3952 16.6691V15.1788C29.3952 15.1343 29.3775 15.0917 29.3459 15.0602C29.3143 15.0287 29.2714 15.0111 29.2267 15.0111H24.366V12.4451H30.0197C30.0644 12.4451 30.1072 12.4274 30.1388 12.3959C30.1704 12.3645 30.1882 12.3218 30.1882 12.2773V10.7772C30.1885 10.7551 30.1843 10.7331 30.1759 10.7126C30.1675 10.6922 30.1551 10.6736 30.1394 10.6579C30.1237 10.6423 30.1051 10.63 30.0845 10.6216C30.0639 10.6133 30.0419 10.6091 30.0197 10.6094H22.4629C22.4182 10.6094 22.3754 10.6271 22.3438 10.6585C22.3122 10.69 22.2944 10.7327 22.2944 10.7772V21.1497C22.2944 21.1942 22.3122 21.2369 22.3438 21.2683C22.3754 21.2998 22.4182 21.3175 22.4629 21.3175H30.0197C30.0644 21.3175 30.1072 21.2998 30.1388 21.2683C30.1704 21.2369 30.1882 21.1942 30.1882 21.1497V19.6595C30.1885 19.6373 30.1843 19.6154 30.1759 19.5949C30.1675 19.5745 30.1551 19.5559 30.1394 19.5402C30.1237 19.5246 30.1051 19.5122 30.0845 19.5039C30.0639 19.4956 30.0419 19.4914 30.0197 19.4917H24.366Z" fill="white"/>
<path d="M38.0158 15.4295L35.0879 10.7416C35.063 10.7011 35.028 10.6676 34.9864 10.6444C34.9447 10.6213 34.8977 10.6092 34.85 10.6094H32.8062C32.7615 10.6094 32.7186 10.6271 32.687 10.6585C32.6554 10.69 32.6377 10.7327 32.6377 10.7772V21.1497C32.6377 21.1942 32.6554 21.2369 32.687 21.2683C32.7186 21.2998 32.7615 21.3175 32.8062 21.3175H34.5408C34.5855 21.3175 34.6283 21.2998 34.6599 21.2683C34.6915 21.2369 34.7093 21.1942 34.7093 21.1497V13.7616L37.8632 18.5225C37.8785 18.5457 37.8994 18.5648 37.924 18.578C37.9486 18.5911 37.976 18.598 38.0039 18.598C38.0319 18.598 38.0593 18.5911 38.0839 18.578C38.1085 18.5648 38.1293 18.5457 38.1447 18.5225L41.3165 13.7142V21.1497C41.3165 21.1942 41.3342 21.2369 41.3658 21.2683C41.3974 21.2998 41.4403 21.3175 41.485 21.3175H43.2156C43.2603 21.3175 43.3031 21.2998 43.3347 21.2683C43.3663 21.2369 43.3841 21.1942 43.3841 21.1497V10.7772C43.3841 10.7327 43.3663 10.69 43.3347 10.6585C43.3031 10.6271 43.2603 10.6094 43.2156 10.6094H41.1737C41.1258 10.6092 41.0785 10.6213 41.0365 10.6445C40.9946 10.6676 40.9592 10.7011 40.9339 10.7416L38.0158 15.4295Z" fill="white"/>
<path d="M49.3431 10.712L44.8769 21.0826C44.8657 21.1081 44.861 21.1361 44.8634 21.1638C44.8658 21.1916 44.875 21.2184 44.8904 21.2417C44.9057 21.265 44.9267 21.2841 44.9513 21.2974C44.9759 21.3106 45.0035 21.3175 45.0315 21.3175H46.77C46.8257 21.3173 46.8801 21.3008 46.9263 21.2698C46.9726 21.2389 47.0085 21.1951 47.0297 21.1438L50.4314 12.899L53.8332 21.1438C53.8543 21.1951 53.8903 21.2389 53.9365 21.2698C53.9828 21.3008 54.0372 21.3173 54.0929 21.3175H55.8314C55.8594 21.3175 55.8869 21.3106 55.9116 21.2974C55.9362 21.2841 55.9572 21.265 55.9725 21.2417C55.9878 21.2184 55.9971 21.1916 55.9995 21.1638C56.0018 21.1361 55.9972 21.1081 55.986 21.0826L51.5198 10.712C51.5071 10.6815 51.4857 10.6555 51.4582 10.6372C51.4306 10.6189 51.3982 10.6092 51.3651 10.6094H49.4977C49.4646 10.6092 49.4323 10.6189 49.4047 10.6372C49.3772 10.6555 49.3557 10.6815 49.3431 10.712Z" fill="white"/>
<path d="M17.6 16.9356H17.6436C17.6674 16.9356 19.8896 16.5408 19.8242 14.0301C19.737 11.3536 17.4771 10.6232 16.1548 10.6134H15.8099H11.6073C11.5626 10.6134 11.5198 10.6311 11.4882 10.6625C11.4566 10.694 11.4388 10.7367 11.4388 10.7812V21.1497C11.4388 21.1942 11.4566 21.2369 11.4882 21.2684C11.5198 21.2998 11.5626 21.3175 11.6073 21.3175H13.3716C13.4163 21.3175 13.4592 21.2998 13.4908 21.2684C13.5224 21.2369 13.5401 21.1942 13.5401 21.1497V12.4648H15.6612C16.1999 12.4353 16.7331 12.586 17.1758 12.8932C17.3473 13.0264 17.4877 13.1951 17.5873 13.3877C17.6868 13.5802 17.7433 13.792 17.7526 14.0084C17.7608 14.168 17.7372 14.3275 17.6831 14.478C17.629 14.6284 17.5455 14.7666 17.4374 14.8848C17.0945 15.2637 16.5137 15.4572 15.7088 15.4572H14.5253C14.4934 15.4557 14.4616 15.4632 14.4338 15.479C14.406 15.4948 14.3833 15.5181 14.3684 15.5463C14.3534 15.5744 14.3468 15.6063 14.3493 15.638C14.3518 15.6698 14.3634 15.7002 14.3826 15.7256L17.9152 21.1892C17.9408 21.2284 17.9757 21.2606 18.0169 21.283C18.0581 21.3054 18.1042 21.3172 18.1511 21.3175H20.1334C20.1638 21.3177 20.1936 21.3097 20.2198 21.2944C20.246 21.2791 20.2675 21.257 20.2822 21.2306C20.2968 21.2041 20.3039 21.1741 20.3029 21.1439C20.3018 21.1137 20.2926 21.0844 20.2762 21.059L17.6238 16.9731L17.6 16.9356Z" fill="white"/>
</svg>
