<svg width="86" height="30" viewBox="0 0 86 30" fill="none" xmlns="http://www.w3.org/2000/svg">
<rect width="86" height="30" rx="15" fill="#F43630"/>
<path d="M15.4121 9.54102C13.751 9.53418 12.5752 10.7031 12.582 12.3848C12.5752 14.0527 13.751 15.2217 15.4121 15.2285C17.0664 15.2217 18.2559 14.0527 18.2559 12.3848C18.2559 10.7031 17.0664 9.53418 15.4121 9.54102ZM13.9492 12.3848C13.9355 11.3867 14.5508 10.7715 15.4121 10.7715C16.2598 10.7715 16.875 11.3867 16.875 12.3848C16.875 13.3555 16.2598 13.9707 15.4121 13.9707C14.5508 13.9707 13.9355 13.3555 13.9492 12.3848ZM14.7285 21.0664H23.0684V16.1035H21.5645V17.3477H16.2324V16.1035H14.7285V21.0664ZM16.2324 19.8359V18.5508H21.5645V19.8359H16.2324ZM18.9668 15.502H20.3887V12.7812H21.6191V15.584H23.0684V8.87109H21.6191V11.5234H20.3887V9.10352H18.9668V15.502ZM36.8016 8.85742H35.284V21.2305H36.8016V14.791H38.702V13.5469H36.8016V8.85742ZM27.6277 18.209H28.6531C30.8816 18.209 32.5428 18.1543 34.4637 17.8262L34.2859 16.541C32.5906 16.835 31.0662 16.9307 29.1453 16.9375V11.2637H33.4109V10.0332H27.6277V18.209ZM50.1008 14.9688H38.8078V16.1855H43.7844V18.4551H45.3293V16.1855H50.1008V14.9688ZM40.0109 11.6602C40.0041 13.2188 41.7814 14.1826 44.4406 14.1758C47.1135 14.1826 48.8703 13.2188 48.8703 11.6602C48.8703 10.1084 47.1135 9.13086 44.4406 9.13086C41.7814 9.13086 40.0041 10.1084 40.0109 11.6602ZM40.1887 20.9707H48.8566V19.7266H41.7199V17.3066H40.1887V20.9707ZM41.6516 11.6602C41.6379 10.8125 42.7453 10.334 44.4406 10.334C46.1496 10.334 47.2502 10.8125 47.2434 11.6602C47.2502 12.4805 46.1496 12.959 44.4406 12.959C42.7453 12.959 41.6379 12.4805 41.6516 11.6602ZM61.8141 18.5234H56.8922V16.5137H60.7613V15.2695H53.3785V13.6699H60.4742V9.70508H51.8336V10.9355H58.9703V12.4668H51.8609V16.5137H55.3883V18.5234H50.5211V19.7812H61.8141V18.5234ZM72.2559 14.6543H65.0918V11.168H72.1602V9.9375H63.5879V15.8711H72.2559V14.6543ZM62.2207 19.6445H73.5137V18.3867H62.2207V19.6445Z" fill="white"/>
</svg>
