<svg width="215" height="56" viewBox="0 0 215 56" fill="none" xmlns="http://www.w3.org/2000/svg">
<rect x="0.650391" width="214" height="55.9477" rx="27.9739" fill="#F43630"/>
<path fill-rule="evenodd" clip-rule="evenodd" d="M43.7265 27.3876C43.7559 25.014 45.0007 22.8223 47.0218 21.5803C45.7406 19.7508 43.6719 18.6318 41.4396 18.5619C39.0912 18.3157 36.8142 19.9676 35.6169 19.9676C34.3972 19.9676 32.5551 18.5871 30.5704 18.6276C27.959 18.7115 25.5841 20.1606 24.314 22.4433C21.609 27.1261 23.6259 34.009 26.2177 37.7939C27.5143 39.65 29.029 41.72 31.0124 41.6459C32.9524 41.5662 33.6769 40.4095 36.0183 40.4095C38.3387 40.4095 39.0185 41.6459 41.041 41.5997C43.1223 41.5662 44.4342 39.7367 45.6861 37.8652C46.6162 36.5449 47.3337 35.086 47.8093 33.5405C45.3364 32.4943 43.7293 30.0717 43.7265 27.3876" fill="white"/>
<path fill-rule="evenodd" clip-rule="evenodd" d="M39.9053 16.0723C41.041 14.71 41.5991 12.9574 41.4648 11.1895C39.7304 11.3727 38.1275 12.2007 36.9778 13.5113C35.8421 14.8037 35.2672 16.4961 35.3777 18.2123C37.1358 18.2305 38.8045 17.4416 39.9053 16.0723" fill="white"/>
<path fill-rule="evenodd" clip-rule="evenodd" d="M127.617 36.1203C126.605 36.571 125.407 36.7964 124.022 36.7964C122.686 36.7964 121.522 36.5833 120.53 36.1571C119.539 35.731 118.756 35.143 118.182 34.3931C117.609 33.6432 117.281 32.7683 117.199 31.7685L117.187 31.621H119.903L119.916 31.7439C119.973 32.2848 120.184 32.7519 120.549 33.1453C120.914 33.5387 121.405 33.844 122.024 34.0612C122.643 34.2783 123.35 34.3869 124.145 34.3869C124.899 34.3869 125.564 34.2701 126.142 34.0366C126.72 33.803 127.175 33.4772 127.507 33.0593C127.839 32.6413 128.005 32.1619 128.005 31.621V31.6087C128.005 30.9202 127.746 30.3527 127.23 29.9061C126.714 29.4594 125.87 29.109 124.698 28.855L122.755 28.4493C120.961 28.0559 119.653 27.4413 118.834 26.6053C118.014 25.7694 117.605 24.6999 117.605 23.3968V23.3845C117.613 22.3601 117.889 21.4586 118.434 20.68C118.979 19.9014 119.735 19.2929 120.702 18.8545C121.67 18.416 122.78 18.1968 124.034 18.1968C125.288 18.1968 126.384 18.4119 127.322 18.8422C128.261 19.2724 129.002 19.8564 129.547 20.594C130.092 21.3315 130.398 22.1634 130.463 23.0895L130.476 23.2616H127.783L127.759 23.1018C127.685 22.61 127.486 22.1777 127.163 21.8048C126.839 21.4319 126.409 21.1369 125.872 20.9197C125.335 20.7025 124.71 20.598 123.997 20.6062C123.309 20.6062 122.694 20.7107 122.153 20.9197C121.612 21.1287 121.184 21.4278 120.868 21.8171C120.553 22.2064 120.395 22.6797 120.395 23.237V23.2493C120.395 23.9131 120.647 24.4643 121.151 24.9027C121.655 25.3412 122.477 25.6792 123.616 25.9169L125.558 26.3472C127.419 26.7406 128.757 27.3306 129.572 28.1174C130.387 28.9042 130.795 29.9573 130.795 31.2767V31.289C130.795 32.4118 130.519 33.385 129.965 34.2087C129.412 35.0323 128.63 35.6695 127.617 36.1203ZM68.7274 36.3661L70.329 31.5728H77.1057L78.7094 36.3661H81.6106L75.2182 18.627H72.2309L65.8262 36.3661H68.7274ZM76.3658 29.3601H71.069L73.6201 21.7372H73.8168L76.3658 29.3601ZM85.8332 34.2517V40.804H83.1656V23.028H85.8332V25.1424H86.0299C86.2922 24.6507 86.6241 24.2307 87.0257 23.8824C87.4272 23.5341 87.8903 23.2677 88.4148 23.0833C88.9393 22.8989 89.513 22.8067 90.1358 22.8067C91.2586 22.8067 92.2339 23.0895 93.0616 23.655C93.8894 24.2204 94.5286 25.0175 94.9794 26.046C95.4301 27.0745 95.6555 28.2895 95.6555 29.6909V29.7155C95.6555 31.1169 95.4301 32.3319 94.9794 33.3604C94.5286 34.389 93.8914 35.186 93.0678 35.7515C92.2441 36.317 91.2668 36.5997 90.1358 36.5997C89.5212 36.5997 88.9475 36.5034 88.4148 36.3108C87.8821 36.1182 87.4129 35.8457 87.0072 35.4933C86.6015 35.1409 86.2758 34.727 86.0299 34.2517H85.8332ZM89.3737 34.3009C88.6361 34.3009 87.9989 34.1165 87.4621 33.7477C86.9253 33.3789 86.5134 32.8482 86.2266 32.1557C85.9398 31.4632 85.7963 30.6457 85.7963 29.7032V29.6786C85.7963 28.728 85.9398 27.9105 86.2266 27.2261C86.5134 26.5418 86.9253 26.0153 87.4621 25.6465C87.9989 25.2777 88.6361 25.0933 89.3737 25.0933C90.1194 25.0933 90.7566 25.2777 91.2853 25.6465C91.8139 26.0153 92.2216 26.5418 92.5084 27.2261C92.7953 27.9105 92.9387 28.732 92.9387 29.6909V29.7155C92.9387 30.658 92.7953 31.4734 92.5084 32.1618C92.2216 32.8503 91.8139 33.3789 91.2853 33.7477C90.7566 34.1165 90.1194 34.3009 89.3737 34.3009ZM100.296 34.2517V40.804H97.6284V23.028H100.296V25.1424H100.493C100.755 24.6507 101.087 24.2307 101.488 23.8824C101.89 23.5341 102.353 23.2677 102.878 23.0833C103.402 22.8989 103.976 22.8067 104.599 22.8067C105.721 22.8067 106.697 23.0895 107.524 23.655C108.352 24.2204 108.991 25.0175 109.442 26.046C109.893 27.0745 110.118 28.2895 110.118 29.6909V29.7155C110.118 31.1169 109.893 32.3319 109.442 33.3604C108.991 34.389 108.354 35.186 107.531 35.7515C106.707 36.317 105.73 36.5997 104.599 36.5997C103.984 36.5997 103.41 36.5034 102.878 36.3108C102.345 36.1182 101.876 35.8457 101.47 35.4933C101.064 35.1409 100.739 34.727 100.493 34.2517H100.296ZM103.836 34.3009C103.099 34.3009 102.462 34.1165 101.925 33.7477C101.388 33.3789 100.976 32.8482 100.689 32.1557C100.403 31.4632 100.259 30.6457 100.259 29.7032V29.6786C100.259 28.728 100.403 27.9105 100.689 27.2261C100.976 26.5418 101.388 26.0153 101.925 25.6465C102.462 25.2777 103.099 25.0933 103.836 25.0933C104.582 25.0933 105.219 25.2777 105.748 25.6465C106.277 26.0153 106.684 26.5418 106.971 27.2261C107.258 27.9105 107.401 28.732 107.401 29.6909V29.7155C107.401 30.658 107.258 31.4734 106.971 32.1618C106.684 32.8503 106.277 33.3789 105.748 33.7477C105.219 34.1165 104.582 34.3009 103.836 34.3009ZM137.894 36.4522C138.157 36.4522 138.411 36.4399 138.657 36.4153C138.902 36.3907 139.128 36.3579 139.333 36.317V34.1902C139.152 34.2066 138.993 34.221 138.853 34.2333C138.714 34.2455 138.542 34.2517 138.337 34.2517C137.681 34.2517 137.21 34.0939 136.923 33.7784C136.636 33.4629 136.493 32.9486 136.493 32.2356V25.1424H139.333V23.028H136.493V19.672H133.764V23.028H131.686V25.1424H133.764V32.8503C133.764 34.137 134.09 35.0589 134.741 35.6162C135.393 36.1735 136.444 36.4522 137.894 36.4522ZM150.089 35.7883C149.151 36.3456 148.026 36.6243 146.715 36.6243C145.42 36.6243 144.299 36.3456 143.352 35.7883C142.406 35.2311 141.678 34.4361 141.17 33.4035C140.662 32.3708 140.408 31.1374 140.408 29.7032V29.6786C140.408 28.2526 140.664 27.0233 141.177 25.9907C141.689 24.958 142.416 24.1631 143.359 23.6058C144.301 23.0485 145.42 22.7698 146.715 22.7698C148.018 22.7698 149.14 23.0485 150.083 23.6058C151.025 24.1631 151.751 24.958 152.259 25.9907C152.767 27.0233 153.021 28.2526 153.021 29.6786V29.7032C153.021 31.1374 152.767 32.3708 152.259 33.4035C151.751 34.4361 151.027 35.2311 150.089 35.7883ZM146.715 34.3869C145.961 34.3869 145.317 34.2025 144.785 33.8337C144.252 33.4649 143.844 32.9322 143.561 32.2356C143.279 31.539 143.137 30.699 143.137 29.7155V29.6909C143.137 28.6993 143.279 27.8551 143.561 27.1585C143.844 26.4619 144.252 25.9292 144.785 25.5604C145.317 25.1916 145.961 25.0072 146.715 25.0072C147.477 25.0072 148.122 25.1916 148.651 25.5604C149.179 25.9292 149.585 26.4619 149.868 27.1585C150.151 27.8551 150.292 28.6993 150.292 29.6909V29.7155C150.292 30.6908 150.153 31.5288 149.874 32.2295C149.595 32.9302 149.19 33.4649 148.657 33.8337C148.124 34.2025 147.477 34.3869 146.715 34.3869ZM157.637 28.4001V36.3661H154.969V23.028H157.637V25.0564H157.834C158.071 24.3434 158.489 23.7902 159.088 23.3968C159.686 23.0034 160.428 22.8067 161.313 22.8067C161.526 22.8067 161.739 22.817 161.952 22.8375C162.165 22.858 162.337 22.8846 162.468 22.9174V25.3883C162.231 25.3309 161.997 25.29 161.767 25.2654C161.538 25.2408 161.296 25.2285 161.042 25.2285C160.362 25.2285 159.768 25.3596 159.26 25.6219C158.752 25.8841 158.354 26.2509 158.067 26.7221C157.78 27.1934 157.637 27.7527 157.637 28.4001ZM169.051 36.6243C169.903 36.6243 170.659 36.5136 171.319 36.2924C171.979 36.0711 172.544 35.7801 173.016 35.4195C173.487 35.0589 173.866 34.6594 174.153 34.221C174.44 33.7825 174.636 33.3379 174.743 32.8871L174.78 32.7765L172.198 32.7888L172.149 32.8871C172.051 33.1166 171.868 33.3502 171.602 33.5879C171.336 33.8255 170.995 34.0243 170.582 34.1841C170.168 34.3439 169.674 34.4238 169.1 34.4238C168.363 34.4238 167.721 34.2599 167.176 33.9321C166.631 33.6043 166.211 33.1289 165.916 32.5061C165.663 31.9722 165.519 31.348 165.483 30.6335L165.477 30.4049L174.915 30.4039V29.4696C174.915 28.1338 174.673 26.9639 174.19 25.9599C173.706 24.956 173.016 24.1733 172.118 23.6119C171.221 23.0505 170.149 22.7698 168.904 22.7698C167.666 22.7698 166.588 23.0608 165.67 23.6427C164.753 24.2245 164.042 25.0359 163.538 26.0767C163.034 27.1175 162.782 28.3346 162.782 29.7278V29.7401C162.782 31.1415 163.034 32.3585 163.538 33.3912C164.042 34.4238 164.761 35.2208 165.695 35.7822C166.629 36.3436 167.748 36.6243 169.051 36.6243ZM165.506 28.4985H172.28L172.247 28.198C172.179 27.6797 172.054 27.2246 171.872 26.8328C171.581 26.2058 171.184 25.7387 170.68 25.4313C170.176 25.124 169.592 24.9703 168.928 24.9703C168.264 24.9703 167.672 25.1322 167.152 25.4559C166.631 25.7796 166.222 26.255 165.922 26.8819C165.709 27.3297 165.571 27.8518 165.51 28.4481L165.506 28.4985Z" fill="white"/>
</svg>
