<svg width="40" height="40" viewBox="0 0 40 40" fill="none" xmlns="http://www.w3.org/2000/svg">
<path d="M9.86084 8.38123L12.4062 10.4371" stroke="#C6D726" stroke-width="2" stroke-linecap="round"/>
<path d="M8.71826 13.658L12.067 13.6264" stroke="#C6D726" stroke-width="2" stroke-linecap="round"/>
<path d="M9.86572 18.754L12.2961 16.4835" stroke="#C6D726" stroke-width="2" stroke-linecap="round"/>
<path d="M30.6587 8.38135L28.1133 10.4372" stroke="#C6D726" stroke-width="2" stroke-linecap="round"/>
<path d="M31.8008 13.658L28.452 13.6264" stroke="#C6D726" stroke-width="2" stroke-linecap="round"/>
<path d="M30.6543 18.7542L28.2239 16.4836" stroke="#C6D726" stroke-width="2" stroke-linecap="round"/>
<path d="M17.5979 15.5941L16.7705 9.60038C16.6914 9.02773 16.1921 8.62227 15.6598 8.69843C15.1274 8.7746 14.7572 9.30447 14.8363 9.87712L14.602 19.945C14.5832 20.7263 14.2547 21.4595 13.694 21.9534L9.80367 25.3957L12.336 29.6808L14.5143 27.7973C14.914 27.4481 15.4108 27.2456 15.9262 27.2108L16.325 27.1829C16.9926 27.1361 17.6169 26.8083 18.0536 26.2689L19.0122 25.0855C19.4911 24.4914 19.7034 23.7019 19.5953 22.9193L18.7099 16.5056C18.6309 15.933 18.1316 15.5275 17.5992 15.6037C17.0669 15.6798 16.6967 16.2097 16.7757 16.7823L17.4055 21.3445" fill="#FFCEBF"/>
<path d="M16.7868 20.9266L16.2644 17.1422C16.1696 16.4557 16.6489 15.8196 17.335 15.7214V15.7214" stroke="#D2A394" stroke-linecap="round"/>
<path d="M8.63402 25.5337C8.29735 25.0974 8.3763 24.4653 8.81038 24.1219L9.7491 23.3793C10.6173 22.6926 11.8669 22.8433 12.5403 23.7159L15.244 27.2198C15.9174 28.0924 15.7595 29.3566 14.8913 30.0433L13.9526 30.7859C13.5185 31.1293 12.8937 31.0539 12.557 30.6176L8.63402 25.5337Z" fill="#B2C21D"/>
<path d="M22.4026 15.5941L23.23 9.60038C23.3091 9.02773 23.8084 8.62227 24.3407 8.69843C24.8731 8.7746 25.2433 9.30447 25.1642 9.87712L25.3985 19.945C25.4173 20.7263 25.7458 21.4595 26.3065 21.9534L30.1968 25.3957L27.6645 29.6808L25.4862 27.7973C25.0865 27.4481 24.5897 27.2456 24.0742 27.2108L23.6755 27.1829C23.0079 27.1361 22.3836 26.8083 21.9469 26.2689L20.9883 25.0855C20.5093 24.4914 20.2971 23.7019 20.4052 22.9193L21.2906 16.5056C21.3696 15.933 21.8689 15.5275 22.4013 15.6037C22.9336 15.6798 23.3038 16.2097 23.2248 16.7823L22.595 21.3445" fill="#FFCEBF"/>
<path d="M23.2137 20.9267L23.7361 17.1423C23.8309 16.4558 23.3515 15.8197 22.6655 15.7216V15.7216" stroke="#D2A394" stroke-linecap="round"/>
<path d="M31.366 25.5337C31.7027 25.0974 31.6237 24.4653 31.1896 24.1219L30.2509 23.3793C29.3827 22.6926 28.1331 22.8433 27.4597 23.7159L24.756 27.2198C24.0826 28.0924 24.2405 29.3566 25.1087 30.0433L26.0474 30.7859C26.4815 31.1293 27.1063 31.0539 27.443 30.6176L31.366 25.5337Z" fill="#B2C21D"/>
</svg>
