<svg width="95" height="24" viewBox="0 0 95 24" fill="none" xmlns="http://www.w3.org/2000/svg">
<g id="Logo">
<path id="Vector" d="M49.3724 7.40283L52.5163 16.9638L55.2066 7.40283H60.0383L55.0456 23.5126H50.1505L46.6504 13.1077L43.2139 23.5126H38.2212L33.165 7.40283H38.287L40.9773 16.9321L44.1529 7.40283H49.3724Z" fill="#15181E"/>
<path id="Vector_2" d="M75.5295 18.878C74.7515 21.6658 72.1905 24 68.1051 24C63.6636 24 59.71 20.8219 59.71 15.4097C59.71 9.99748 63.5685 6.91699 67.749 6.91699C72.7417 6.91699 75.8198 9.99749 75.8198 15.1829C75.8198 15.8634 75.7539 16.6097 75.7222 16.7073H64.5051C64.6027 18.5219 66.2563 19.8195 68.1685 19.8195C69.9515 19.8195 70.9563 18.9756 71.41 17.7121L75.5271 18.878H75.5295ZM71.0563 13.5292C70.9905 12.2975 70.149 10.8072 67.8149 10.8072C65.7392 10.8072 64.7027 12.3316 64.6051 13.5292H71.0563Z" fill="#15181E"/>
<path id="Vector_3" d="M77.5747 23.5128V0.0419922H82.404V8.92496C83.0845 7.92008 84.8674 7.01276 87.0723 7.01276C91.7406 7.01276 94.5601 10.5786 94.5601 15.4079C94.5601 20.2372 91.3821 23.8689 86.8772 23.8689C84.7382 23.8689 83.0845 22.9299 82.3381 21.6957V23.5104H77.5723L77.5747 23.5128ZM86.004 11.4542C84.0918 11.4542 82.3406 12.7176 82.3406 15.442C82.3406 18.1664 84.0918 19.4616 86.004 19.4616C87.9162 19.4616 89.6357 18.1323 89.6357 15.442C89.6357 12.7518 87.9186 11.4542 86.004 11.4542Z" fill="#15181E"/>
<path id="Vector_4" d="M7.64355 23.3491V7.23683H12.3436V9.08564C13.1533 7.6588 15.2289 6.75146 16.9802 6.75146C19.2826 6.75146 20.9363 7.69049 21.746 9.28074C23.0095 7.4661 24.5656 6.75146 26.7387 6.75146C29.7851 6.75146 32.7046 8.5344 32.7046 12.91V23.3491H27.9387V14.0125C27.9387 12.4881 27.129 11.2905 25.3778 11.2905C23.6265 11.2905 22.6875 12.6198 22.6875 14.0466V23.3515H17.8241V14.0149C17.8241 12.4905 17.0143 11.2929 15.2314 11.2929C13.4485 11.2929 12.5728 12.6222 12.5728 14.0808V23.3515H7.64355V23.3491Z" fill="#15181E"/>
<g id="Group">
<path id="Vector_5" d="M5.17489 7.23682H0.248047V23.3491H5.17489V7.23682Z" fill="#15181E"/>
<path id="Vector_6" d="M5.66831 2.83415C5.66831 4.40001 4.40001 5.66831 2.83416 5.66831C1.2683 5.66831 0 4.40001 0 2.83415C0 1.2683 1.2683 0 2.83416 0C4.40001 0 5.66831 1.2683 5.66831 2.83415Z" fill="#15181E"/>
</g>
</g>
</svg>
