<?xml version="1.0" encoding="UTF-8"?>
<svg id="Layer_6" data-name="Layer 6" xmlns="http://www.w3.org/2000/svg" viewBox="0 0 104 104">
  <defs>
    <style>
      .cls-1, .cls-2, .cls-3 {
        stroke-width: 0px;
      }

      .cls-2 {
        fill: #f6f6f6;
      }

      .cls-3 {
        fill: #ff7da5;
      }
    </style>
  </defs>
  <rect class="cls-2" width="104" height="104" rx="26" ry="26"/>
  <g>
    <polygon class="cls-3" points="28.83 78.66 28.83 64.5 48.43 46.56 48.48 66.5 55.92 65.59 55.92 75 28.83 78.66"/>
    <path class="cls-1" d="m46.47,25.39v8.95l-19.24,3.05v43.33l30.28-4.8v-8.95l19.25-3.05V20.58l-30.29,4.81Zm0,43.34l7.44-1.18v5.31l-23.08,3.66v-36.05l15.64-2.48v30.74Zm26.69-7.88l-15.65,2.47-3.6.57-3.84.61V28.46l23.09-3.65v36.05Z"/>
    <path class="cls-1" d="m67.52,43.3c0,4.01-3.18,7.78-7.1,8.41-.37.05-.73.08-1.08.08-.64,0-1.25-.09-1.82-.27-.66-.19-1.26-.5-1.8-.9h.21c.27,0,.54-.02.82-.06.26-.05.52-.1.77-.19,2.63-.79,4.64-3.42,4.64-6.22,0-1.56-.63-2.87-1.64-3.72-.22-.19-.47-.36-.73-.5-.18-.1-.37-.18-.56-.25-.11-.05-.23-.08-.33-.11-.13-.05-.26-.07-.4-.1-.1-.02-.2-.04-.3-.05-.06-.02-.14-.02-.21-.02-.05-.02-.11-.02-.17,0-.08-.02-.16-.02-.25-.02h-.06c-.25,0-.5.03-.77.07-.35.05-.69.14-1.03.26.53-.57,1.14-1.07,1.8-1.47.88-.56,1.86-.95,2.9-1.11.38-.06.74-.09,1.1-.09,3.4,0,6,2.6,6,6.25Z"/>
  </g>
</svg>