<svg width="214" height="57" viewBox="0 0 214 57" fill="none" xmlns="http://www.w3.org/2000/svg">
<rect width="214" height="56.3158" rx="28.1579" fill="#F43630"/>
<path fill-rule="evenodd" clip-rule="evenodd" d="M47.869 33.0075L43.9506 29.5659L29.5664 42.237L47.869 33.0075Z" fill="white"/>
<path fill-rule="evenodd" clip-rule="evenodd" d="M47.869 23.3085L29.5664 14.0791L43.9506 26.7502L47.869 23.3085Z" fill="white"/>
<mask id="mask0_260_3624" style="mask-type:alpha" maskUnits="userSpaceOnUse" x="44" y="24" width="10" height="9">
<path fill-rule="evenodd" clip-rule="evenodd" d="M44.375 24.2593H53.2011V32.0646H44.375V24.2593Z" fill="white"/>
</mask>
<g mask="url(#mask0_260_3624)">
<path fill-rule="evenodd" clip-rule="evenodd" d="M52.3543 29.9997C53.4957 29.135 53.4957 27.1863 52.2784 26.3216L48.5429 24.2593L44.375 28.162L48.5429 32.0646L52.3543 29.9997Z" fill="white"/>
</g>
<mask id="mask1_260_3624" style="mask-type:alpha" maskUnits="userSpaceOnUse" x="23" y="12" width="19" height="32">
<path fill-rule="evenodd" clip-rule="evenodd" d="M23.9346 12.6711H41.5853V43.6448H23.9346V12.6711Z" fill="white"/>
</mask>
<g mask="url(#mask1_260_3624)">
<path fill-rule="evenodd" clip-rule="evenodd" d="M25.3101 43.6448L41.5853 28.1554L25.3101 12.6724V12.6711C24.4866 13.0828 23.9346 13.8327 23.9346 14.8071V41.5089C23.9346 42.4833 24.4866 43.2331 25.3101 43.6448" fill="white"/>
</g>
<mask id="mask2_260_3624" style="mask-type:alpha" maskUnits="userSpaceOnUse" x="66" y="15" width="19" height="21">
<path fill-rule="evenodd" clip-rule="evenodd" d="M66.1709 15.5H84.4129V35.1358H66.1709V15.5Z" fill="white"/>
</mask>
<g mask="url(#mask2_260_3624)">
<path fill-rule="evenodd" clip-rule="evenodd" d="M80.0236 24.4303C81.2754 24.4303 82.5271 24.4258 83.7788 24.4325C84.2775 24.4352 84.3256 24.4679 84.3614 24.9277C84.508 26.8133 84.3747 28.6667 83.5343 30.3786C82.2352 33.025 80.1139 34.5316 77.3316 34.9926C74.9633 35.3851 72.7047 34.9844 70.6656 33.6189C67.6397 31.5926 66.0292 28.6973 66.1807 24.9193C66.3271 21.2698 68.0651 18.537 71.0952 16.7634C74.5668 14.7314 78.752 15.1946 81.6748 17.8356C82.0796 18.2014 82.0829 18.2047 81.7118 18.6012C81.339 18.9993 80.9451 19.3769 80.587 19.7886C80.3666 20.0419 80.2024 20.0516 79.9571 19.8238C79.2355 19.1537 78.3947 18.711 77.4629 18.4434C73.6335 17.3434 69.7821 19.8981 69.056 23.9785C68.4003 27.6634 70.5088 31.2525 73.8224 32.1612C76.1797 32.8075 78.3695 32.4253 80.2295 30.6353C81.0902 29.807 81.5008 28.7494 81.7156 27.5868C81.7868 27.2016 81.7299 27.1381 81.3086 27.1356C79.8251 27.1265 78.3416 27.1316 76.858 27.1315C75.6455 27.1314 75.6455 27.1315 75.6455 25.8599C75.6455 25.5451 75.6638 25.2289 75.6413 24.9158C75.6133 24.5261 75.779 24.4203 76.1294 24.4244C77.4273 24.4395 78.7255 24.4304 80.0236 24.4303" fill="white"/>
</g>
<path fill-rule="evenodd" clip-rule="evenodd" d="M178.803 22.5322C179.673 22.5322 180.51 22.5397 181.347 22.5282C181.64 22.5241 181.799 22.6515 181.899 22.9228C182.066 23.3709 182.255 23.81 182.433 24.2537C183.237 26.2623 184.037 28.2722 184.846 30.2785C184.919 30.4589 184.949 30.6742 185.145 30.8001C185.344 30.7487 185.352 30.5553 185.411 30.4045C186.3 28.1047 187.181 25.8018 188.077 23.5045C188.529 22.3455 188.332 22.5515 189.426 22.5329C189.945 22.5241 190.464 22.5241 190.983 22.5335C191.54 22.5435 191.562 22.5707 191.349 23.0821C190.747 24.5211 190.137 25.9563 189.527 27.3911C187.734 31.603 185.927 35.8085 184.16 40.0317C183.905 40.6409 183.591 40.8803 182.95 40.82C182.315 40.7603 181.67 40.8069 181.045 40.8069C180.904 40.4805 181.103 40.2775 181.198 40.0597C181.953 38.3312 182.708 36.6027 183.486 34.8849C183.676 34.4663 183.692 34.117 183.5 33.6784C181.983 30.1974 180.495 26.7034 178.998 23.2132C178.919 23.0312 178.803 22.8625 178.803 22.5322" fill="white"/>
<path fill-rule="evenodd" clip-rule="evenodd" d="M166.13 26.7288C166.13 29.7087 166.13 32.6885 166.129 35.6684C166.129 35.8738 166.126 36.0793 166.125 36.2848C166.125 36.51 166.01 36.6035 165.803 36.6032C165.088 36.602 164.373 36.5993 163.658 36.6053C163.4 36.6074 163.31 36.4722 163.317 36.2243C163.322 36.0447 163.316 35.8647 163.316 35.685C163.316 29.7253 163.316 23.7656 163.316 17.8059C163.316 17.7288 163.315 17.6518 163.316 17.5747C163.326 16.9082 163.326 16.9051 163.975 16.8991C164.493 16.8942 165.011 16.8923 165.528 16.8996C166.119 16.9081 166.122 16.9131 166.128 17.5581C166.134 18.1232 166.13 18.6884 166.13 19.2535C166.13 21.7453 166.13 24.2371 166.13 26.7288" fill="white"/>
<path fill-rule="evenodd" clip-rule="evenodd" d="M130.933 26.77V35.5487C130.933 35.7027 130.936 35.8569 130.932 36.0107C130.915 36.5854 130.914 36.5913 130.341 36.599C129.776 36.6067 129.211 36.6083 128.647 36.5984C128.137 36.5894 128.137 36.581 128.12 36.0246C128.117 35.922 128.119 35.8192 128.119 35.7166C128.119 29.7615 128.12 23.8062 128.118 17.8511C128.118 16.8107 128.094 16.8967 129.044 16.8964C129.413 16.8963 129.781 16.895 130.149 16.8967C130.927 16.9004 130.93 16.9011 130.932 17.6832C130.935 18.7356 130.933 19.7881 130.933 20.8406V26.77Z" fill="white"/>
<path fill-rule="evenodd" clip-rule="evenodd" d="M122.137 30.3187C120.945 32.2947 118.4 32.6213 116.768 31.008C115.14 29.3998 115.106 26.5133 116.728 24.8945C117.734 23.8916 118.946 23.5353 120.297 24.0115C121.707 24.5083 122.413 25.6326 122.681 27.0825C122.732 27.3616 122.724 27.6522 122.743 27.9373C122.755 28.7893 122.578 29.5888 122.137 30.3187M125.3 22.3592C125.3 22.229 125.291 22.0981 125.3 21.9686C125.325 21.6244 125.157 21.5098 124.842 21.5209C124.436 21.5352 124.029 21.5278 123.623 21.5284C122.632 21.53 122.632 21.5297 122.472 22.4961C122.319 22.5286 122.247 22.3996 122.155 22.3215C120.62 21.0147 118.881 20.8337 117.067 21.4836C112.26 23.2056 111.073 29.701 114.933 33.1139C116.347 34.3639 117.989 34.9337 119.87 34.6263C120.854 34.4655 121.694 34.0077 122.521 33.1604C122.521 33.8605 122.573 34.4038 122.511 34.9329C122.34 36.3862 121.693 37.5279 120.245 37.9537C118.795 38.38 117.474 38.1132 116.432 36.9058C116.215 36.6542 116.018 36.3745 115.862 36.0797C115.724 35.8193 115.59 35.7503 115.322 35.8768C114.908 36.0727 114.479 36.2372 114.057 36.4164C113.072 36.8349 113.072 36.8352 113.644 37.7604C115.142 40.185 117.856 41.2992 120.659 40.6439C122.83 40.1364 124.239 38.78 124.923 36.6198C125.223 35.6693 125.305 34.688 125.303 33.6918C125.295 29.9143 125.3 26.1368 125.3 22.3592" fill="white"/>
<path fill-rule="evenodd" clip-rule="evenodd" d="M155.366 26.3999C154.055 26.4381 152.74 26.3951 151.428 26.4173C150.987 26.4246 150.885 26.244 150.892 25.8669C150.91 24.9178 150.898 23.968 150.898 23.0186C150.898 22.0691 150.913 21.1193 150.891 20.1703C150.882 19.7697 151.031 19.6346 151.447 19.641C152.76 19.6607 154.074 19.616 155.385 19.6595C157.359 19.7252 158.829 21.1949 158.826 23.0358C158.823 24.8657 157.329 26.3428 155.366 26.3999M157.888 17.4327C156.901 17.0524 155.873 16.9085 154.823 16.9019C152.758 16.8887 150.693 16.8978 148.628 16.898C148.493 16.8981 148.359 16.9036 148.225 16.9004C147.957 16.8938 147.833 17.0177 147.838 17.2725C147.841 17.4522 147.836 17.6321 147.836 17.8118C147.836 20.7915 147.836 23.7712 147.836 26.7509C147.836 28.626 147.836 30.5013 147.836 32.3763C147.836 33.6093 147.849 34.8425 147.829 36.0752C147.823 36.4763 147.967 36.6214 148.384 36.6039C148.973 36.5791 149.564 36.601 150.154 36.5973C150.889 36.5927 150.894 36.5903 150.896 35.8764C150.899 33.9241 150.895 31.9719 150.897 30.0197C150.898 29.0937 150.822 29.1633 151.827 29.1616C152.9 29.1599 153.973 29.1713 155.045 29.1579C155.934 29.1467 156.806 29.0188 157.645 28.7214C160.506 27.7061 161.856 25.3742 161.906 23.1951C161.969 20.4715 160.248 18.3421 157.888 17.4327" fill="white"/>
<path fill-rule="evenodd" clip-rule="evenodd" d="M175.921 30.2947C175.482 31.7342 174.182 32.7102 172.817 32.7199C172.198 32.7186 171.762 32.6589 171.342 32.4719C170.004 31.8764 170.271 30.4017 171.048 29.8425C171.501 29.5164 172.007 29.3368 172.553 29.2433C173.613 29.0619 174.63 29.1941 175.619 29.6087C175.976 29.758 176.024 29.9545 175.921 30.2947M178.789 27.8055C178.772 26.2058 178.287 24.7879 176.953 23.7442C174.986 22.2062 171.481 22.1081 169.431 23.546C168.858 23.9476 168.381 24.4402 168.044 25.0556C167.925 25.2739 167.948 25.4096 168.195 25.507C168.842 25.762 169.488 26.0192 170.127 26.2919C170.333 26.3796 170.463 26.3324 170.561 26.1588C171.275 24.8873 173.573 24.7738 174.746 25.4743C175.515 25.933 176.006 26.5477 175.986 27.5709C175.798 27.5037 175.705 27.4731 175.614 27.4381C175.498 27.3932 175.387 27.3355 175.269 27.2993C173.155 26.6536 171.128 26.7959 169.252 28.0042C166.989 29.4612 167.106 32.4856 168.797 33.9495C169.933 34.9335 171.258 35.2698 172.739 35.1848C173.896 35.1185 174.852 34.6745 175.609 33.8146C175.706 33.7038 175.734 33.4748 176.009 33.5543C176.009 33.8414 176.02 34.133 176.006 34.4235C175.991 34.7335 176.118 34.8627 176.442 34.8546C177.015 34.8403 177.589 34.8565 178.163 34.8497C178.777 34.8423 178.791 34.8371 178.793 34.2331C178.799 32.0905 178.812 29.9479 178.789 27.8055" fill="white"/>
<path fill-rule="evenodd" clip-rule="evenodd" d="M95.1697 31.0225C94.3721 32.3211 93.1489 32.8839 91.6346 32.635C90.1781 32.3955 89.288 31.4634 88.8304 30.0927C88.7002 29.7023 88.6267 29.2921 88.6529 28.8682C88.6988 27.4185 89.2184 26.2169 90.5231 25.4746C92.223 24.5073 94.3437 25.1301 95.2663 26.8608C96.0119 28.2591 95.9924 29.6833 95.1697 31.0225M92.2519 22.5269C88.8318 22.4829 85.866 25.158 85.8838 28.8026C85.8029 32.0524 88.2115 35.1573 92.1391 35.197C96.0799 35.2368 98.5239 32.2224 98.5526 28.9525C98.5846 25.3173 95.8594 22.5733 92.2519 22.5269" fill="white"/>
<path fill-rule="evenodd" clip-rule="evenodd" d="M108.219 32.1102C106.683 33.1753 104.579 32.7675 103.454 31.2126C102.425 29.7905 102.509 27.5919 103.643 26.2527C105.343 24.2456 108.551 24.774 109.544 27.2304C109.755 27.7507 109.88 28.2958 109.864 28.8675C109.829 30.2102 109.34 31.3329 108.219 32.1102M106.329 22.5264C102.725 22.5183 99.9963 25.2268 99.9603 28.8063C99.928 32.0162 102.23 35.1867 106.303 35.1974C110.208 35.2075 112.645 32.1741 112.631 28.8675C112.636 25.2702 109.917 22.5344 106.329 22.5264" fill="white"/>
<path fill-rule="evenodd" clip-rule="evenodd" d="M137.575 25.0814C138.683 24.8133 140.117 25.1883 140.498 26.3432C138.722 27.1002 136.941 27.8594 135.099 28.6447C135.017 26.9067 136.057 25.4489 137.575 25.0814M142.056 31.3245C141.553 30.9813 141.553 30.9859 141.163 31.4232C141.02 31.5841 140.87 31.7412 140.71 31.8847C139.194 33.243 136.347 32.9389 135.558 30.8236C135.725 30.6383 135.963 30.5827 136.177 30.4914C138.274 29.5972 140.375 28.7106 142.474 27.8207C143.827 27.2473 143.833 27.2427 143.178 25.9113C141.107 21.7016 136.653 21.8058 134.234 24.1127C131.955 26.2864 131.689 30.4237 133.684 32.8831C135.29 34.8632 137.381 35.5249 139.797 35.0504C141.392 34.7371 142.663 33.832 143.605 32.391C143.073 32.0247 142.567 31.6719 142.056 31.3245" fill="white"/>
</svg>
