<svg width="215" height="56" viewBox="0 0 215 56" fill="none" xmlns="http://www.w3.org/2000/svg">
<rect x="0.648438" width="214" height="55.9477" rx="27.9739" fill="#F43630"/>
<path fill-rule="evenodd" clip-rule="evenodd" d="M43.7245 27.3876C43.7539 25.014 44.9988 22.8223 47.0199 21.5803C45.7387 19.7508 43.67 18.6318 41.4377 18.5619C39.0893 18.3157 36.8122 19.9676 35.6149 19.9676C34.3953 19.9676 32.5532 18.5871 30.5684 18.6276C27.9571 18.7115 25.5821 20.1606 24.3121 22.4433C21.607 27.1261 23.6239 34.009 26.2157 37.7939C27.5123 39.65 29.0271 41.72 31.0104 41.6459C32.9504 41.5662 33.6749 40.4095 36.0163 40.4095C38.3368 40.4095 39.0165 41.6459 41.0391 41.5997C43.1203 41.5662 44.4323 39.7367 45.6841 37.8652C46.6142 36.5449 47.3318 35.086 47.8073 33.5405C45.3344 32.4943 43.7273 30.0717 43.7245 27.3876Z" fill="white"/>
<path fill-rule="evenodd" clip-rule="evenodd" d="M39.9043 16.0723C41.04 14.71 41.5981 12.9574 41.4638 11.1895C39.7294 11.3727 38.1265 12.2007 36.9768 13.5113C35.8411 14.8037 35.2662 16.4961 35.3767 18.2123C37.1349 18.2305 38.8035 17.4416 39.9043 16.0723Z" fill="white"/>
<path fill-rule="evenodd" clip-rule="evenodd" d="M127.615 36.1203C126.603 36.571 125.405 36.7964 124.02 36.7964C122.684 36.7964 121.52 36.5833 120.528 36.1571C119.537 35.731 118.754 35.143 118.18 34.3931C117.607 33.6432 117.279 32.7683 117.197 31.7685L117.185 31.621H119.901L119.914 31.7439C119.971 32.2848 120.182 32.7519 120.547 33.1453C120.912 33.5387 121.403 33.844 122.022 34.0612C122.641 34.2783 123.348 34.3869 124.143 34.3869C124.897 34.3869 125.562 34.2701 126.14 34.0366C126.718 33.803 127.173 33.4772 127.505 33.0593C127.837 32.6413 128.003 32.1619 128.003 31.621V31.6087C128.003 30.9202 127.745 30.3527 127.228 29.9061C126.712 29.4594 125.868 29.109 124.696 28.855L122.753 28.4493C120.959 28.0559 119.651 27.4413 118.832 26.6053C118.012 25.7694 117.603 24.6999 117.603 23.3968V23.3845C117.611 22.3601 117.887 21.4586 118.432 20.68C118.977 19.9014 119.733 19.2929 120.701 18.8545C121.668 18.416 122.778 18.1968 124.032 18.1968C125.286 18.1968 126.382 18.4119 127.32 18.8422C128.259 19.2724 129 19.8564 129.545 20.594C130.09 21.3315 130.396 22.1634 130.461 23.0895L130.474 23.2616H127.781L127.757 23.1018C127.683 22.61 127.484 22.1777 127.161 21.8048C126.837 21.4319 126.407 21.1369 125.87 20.9197C125.333 20.7025 124.708 20.598 123.995 20.6062C123.307 20.6062 122.692 20.7107 122.151 20.9197C121.61 21.1287 121.182 21.4278 120.866 21.8171C120.551 22.2064 120.393 22.6797 120.393 23.237V23.2493C120.393 23.9131 120.645 24.4643 121.149 24.9027C121.653 25.3412 122.475 25.6792 123.614 25.9169L125.556 26.3472C127.417 26.7406 128.755 27.3306 129.57 28.1174C130.386 28.9042 130.793 29.9573 130.793 31.2767V31.289C130.793 32.4118 130.517 33.385 129.963 34.2087C129.41 35.0323 128.628 35.6695 127.615 36.1203ZM68.7254 36.3661L70.3271 31.5728H77.1038L78.7075 36.3661H81.6087L75.2162 18.627H72.229L65.8242 36.3661H68.7254ZM76.3639 29.3601H71.067L73.6181 21.7372H73.8148L76.3639 29.3601ZM85.8313 34.2517V40.804H83.1636V23.028H85.8313V25.1424H86.028C86.2902 24.6507 86.6221 24.2307 87.0237 23.8824C87.4253 23.5341 87.8883 23.2677 88.4128 23.0833C88.9373 22.8989 89.511 22.8067 90.1339 22.8067C91.2567 22.8067 92.2319 23.0895 93.0597 23.655C93.8874 24.2204 94.5267 25.0175 94.9774 26.046C95.4282 27.0745 95.6535 28.2895 95.6535 29.6909V29.7155C95.6535 31.1169 95.4282 32.3319 94.9774 33.3604C94.5267 34.389 93.8895 35.186 93.0658 35.7515C92.2422 36.317 91.2649 36.5997 90.1339 36.5997C89.5192 36.5997 88.9455 36.5034 88.4128 36.3108C87.8801 36.1182 87.4109 35.8457 87.0053 35.4933C86.5996 35.1409 86.2738 34.727 86.028 34.2517H85.8313ZM89.3717 34.3009C88.6341 34.3009 87.9969 34.1165 87.4601 33.7477C86.9233 33.3789 86.5115 32.8482 86.2246 32.1557C85.9378 31.4632 85.7944 30.6457 85.7944 29.7032V29.6786C85.7944 28.728 85.9378 27.9105 86.2246 27.2261C86.5115 26.5418 86.9233 26.0153 87.4601 25.6465C87.9969 25.2777 88.6341 25.0933 89.3717 25.0933C90.1175 25.0933 90.7547 25.2777 91.2833 25.6465C91.8119 26.0153 92.2196 26.5418 92.5065 27.2261C92.7933 27.9105 92.9367 28.732 92.9367 29.6909V29.7155C92.9367 30.658 92.7933 31.4734 92.5065 32.1618C92.2196 32.8503 91.8119 33.3789 91.2833 33.7477C90.7547 34.1165 90.1175 34.3009 89.3717 34.3009ZM100.294 34.2517V40.804H97.6265V23.028H100.294V25.1424H100.491C100.753 24.6507 101.085 24.2307 101.487 23.8824C101.888 23.5341 102.351 23.2677 102.876 23.0833C103.4 22.8989 103.974 22.8067 104.597 22.8067C105.719 22.8067 106.695 23.0895 107.522 23.655C108.35 24.2204 108.989 25.0175 109.44 26.046C109.891 27.0745 110.116 28.2895 110.116 29.6909V29.7155C110.116 31.1169 109.891 32.3319 109.44 33.3604C108.989 34.389 108.352 35.186 107.529 35.7515C106.705 36.317 105.728 36.5997 104.597 36.5997C103.982 36.5997 103.408 36.5034 102.876 36.3108C102.343 36.1182 101.874 35.8457 101.468 35.4933C101.062 35.1409 100.737 34.727 100.491 34.2517H100.294ZM103.835 34.3009C103.097 34.3009 102.46 34.1165 101.923 33.7477C101.386 33.3789 100.974 32.8482 100.687 32.1557C100.401 31.4632 100.257 30.6457 100.257 29.7032V29.6786C100.257 28.728 100.401 27.9105 100.687 27.2261C100.974 26.5418 101.386 26.0153 101.923 25.6465C102.46 25.2777 103.097 25.0933 103.835 25.0933C104.58 25.0933 105.218 25.2777 105.746 25.6465C106.275 26.0153 106.682 26.5418 106.969 27.2261C107.256 27.9105 107.4 28.732 107.4 29.6909V29.7155C107.4 30.658 107.256 31.4734 106.969 32.1618C106.682 32.8503 106.275 33.3789 105.746 33.7477C105.218 34.1165 104.58 34.3009 103.835 34.3009ZM137.892 36.4522C138.155 36.4522 138.409 36.4399 138.655 36.4153C138.9 36.3907 139.126 36.3579 139.331 36.317V34.1902C139.15 34.2066 138.991 34.221 138.851 34.2333C138.712 34.2455 138.54 34.2517 138.335 34.2517C137.679 34.2517 137.208 34.0939 136.921 33.7784C136.634 33.4629 136.491 32.9486 136.491 32.2356V25.1424H139.331V23.028H136.491V19.672H133.762V23.028H131.684V25.1424H133.762V32.8503C133.762 34.137 134.088 35.0589 134.739 35.6162C135.391 36.1735 136.442 36.4522 137.892 36.4522ZM150.087 35.7883C149.149 36.3456 148.024 36.6243 146.713 36.6243C145.418 36.6243 144.297 36.3456 143.35 35.7883C142.404 35.2311 141.677 34.4361 141.168 33.4035C140.66 32.3708 140.406 31.1374 140.406 29.7032V29.6786C140.406 28.2526 140.662 27.0233 141.175 25.9907C141.687 24.958 142.414 24.1631 143.357 23.6058C144.299 23.0485 145.418 22.7698 146.713 22.7698C148.016 22.7698 149.139 23.0485 150.081 23.6058C151.023 24.1631 151.749 24.958 152.257 25.9907C152.765 27.0233 153.019 28.2526 153.019 29.6786V29.7032C153.019 31.1374 152.765 32.3708 152.257 33.4035C151.749 34.4361 151.026 35.2311 150.087 35.7883ZM146.713 34.3869C145.959 34.3869 145.315 34.2025 144.783 33.8337C144.25 33.4649 143.842 32.9322 143.559 32.2356C143.277 31.539 143.135 30.699 143.135 29.7155V29.6909C143.135 28.6993 143.277 27.8551 143.559 27.1585C143.842 26.4619 144.25 25.9292 144.783 25.5604C145.315 25.1916 145.959 25.0072 146.713 25.0072C147.475 25.0072 148.12 25.1916 148.649 25.5604C149.177 25.9292 149.583 26.4619 149.866 27.1585C150.149 27.8551 150.29 28.6993 150.29 29.6909V29.7155C150.29 30.6908 150.151 31.5288 149.872 32.2295C149.593 32.9302 149.188 33.4649 148.655 33.8337C148.122 34.2025 147.475 34.3869 146.713 34.3869ZM157.635 28.4001V36.3661H154.967V23.028H157.635V25.0564H157.832C158.069 24.3434 158.487 23.7902 159.086 23.3968C159.684 23.0034 160.426 22.8067 161.311 22.8067C161.524 22.8067 161.737 22.817 161.95 22.8375C162.163 22.858 162.335 22.8846 162.466 22.9174V25.3883C162.229 25.3309 161.995 25.29 161.766 25.2654C161.536 25.2408 161.294 25.2285 161.04 25.2285C160.36 25.2285 159.766 25.3596 159.258 25.6219C158.75 25.8841 158.352 26.2509 158.065 26.7221C157.778 27.1934 157.635 27.7527 157.635 28.4001ZM169.049 36.6243C169.901 36.6243 170.657 36.5136 171.317 36.2924C171.977 36.0711 172.542 35.7801 173.014 35.4195C173.485 35.0589 173.864 34.6594 174.151 34.221C174.438 33.7825 174.634 33.3379 174.741 32.8871L174.778 32.7765L172.196 32.7888L172.147 32.8871C172.049 33.1166 171.866 33.3502 171.6 33.5879C171.334 33.8255 170.993 34.0243 170.58 34.1841C170.166 34.3439 169.672 34.4238 169.098 34.4238C168.361 34.4238 167.719 34.2599 167.174 33.9321C166.629 33.6043 166.209 33.1289 165.914 32.5061C165.661 31.9722 165.517 31.348 165.481 30.6335L165.475 30.4049L174.913 30.4039V29.4696C174.913 28.1338 174.671 26.9639 174.188 25.9599C173.704 24.956 173.014 24.1733 172.116 23.6119C171.219 23.0505 170.147 22.7698 168.902 22.7698C167.664 22.7698 166.586 23.0608 165.668 23.6427C164.751 24.2245 164.04 25.0359 163.536 26.0767C163.032 27.1175 162.78 28.3346 162.78 29.7278V29.7401C162.78 31.1415 163.032 32.3585 163.536 33.3912C164.04 34.4238 164.759 35.2208 165.693 35.7822C166.627 36.3436 167.746 36.6243 169.049 36.6243ZM165.504 28.4985H172.278L172.245 28.198C172.177 27.6797 172.052 27.2246 171.87 26.8328C171.579 26.2058 171.182 25.7387 170.678 25.4313C170.174 25.124 169.59 24.9703 168.926 24.9703C168.262 24.9703 167.67 25.1322 167.15 25.4559C166.629 25.7796 166.22 26.255 165.92 26.8819C165.707 27.3297 165.569 27.8518 165.508 28.4481L165.504 28.4985Z" fill="white"/>
</svg>
