<svg width="214" height="57" viewBox="0 0 214 57" fill="none" xmlns="http://www.w3.org/2000/svg">
<rect width="214" height="56.3158" rx="28.1579" fill="#F43630"/>
<path fill-rule="evenodd" clip-rule="evenodd" d="M47.869 33.0075L43.9506 29.5659L29.5664 42.237L47.869 33.0075Z" fill="white"/>
<path fill-rule="evenodd" clip-rule="evenodd" d="M47.869 23.3085L29.5664 14.0791L43.9506 26.7502L47.869 23.3085Z" fill="white"/>
<mask id="mask0_872_8273" style="mask-type:alpha" maskUnits="userSpaceOnUse" x="44" y="24" width="10" height="9">
<path fill-rule="evenodd" clip-rule="evenodd" d="M44.375 24.2593H53.2011V32.0646H44.375V24.2593Z" fill="white"/>
</mask>
<g mask="url(#mask0_872_8273)">
<path fill-rule="evenodd" clip-rule="evenodd" d="M52.3543 29.9997C53.4957 29.135 53.4957 27.1863 52.2784 26.3216L48.5429 24.2593L44.375 28.162L48.5429 32.0646L52.3543 29.9997Z" fill="white"/>
</g>
<mask id="mask1_872_8273" style="mask-type:alpha" maskUnits="userSpaceOnUse" x="23" y="12" width="19" height="32">
<path fill-rule="evenodd" clip-rule="evenodd" d="M23.9336 12.6711H41.5843V43.6448H23.9336V12.6711Z" fill="white"/>
</mask>
<g mask="url(#mask1_872_8273)">
<path fill-rule="evenodd" clip-rule="evenodd" d="M25.3092 43.6448L41.5843 28.1554L25.3092 12.6724V12.6711C24.4857 13.0828 23.9336 13.8327 23.9336 14.8071V41.5089C23.9336 42.4833 24.4857 43.2331 25.3092 43.6448Z" fill="white"/>
</g>
<mask id="mask2_872_8273" style="mask-type:alpha" maskUnits="userSpaceOnUse" x="66" y="15" width="19" height="21">
<path fill-rule="evenodd" clip-rule="evenodd" d="M66.1719 15.5H84.4139V35.1358H66.1719V15.5Z" fill="white"/>
</mask>
<g mask="url(#mask2_872_8273)">
<path fill-rule="evenodd" clip-rule="evenodd" d="M80.0246 24.4303C81.2763 24.4303 82.5281 24.4258 83.7798 24.4325C84.2785 24.4352 84.3266 24.4679 84.3624 24.9277C84.5089 26.8133 84.3757 28.6667 83.5353 30.3786C82.2362 33.025 80.1149 34.5316 77.3326 34.9926C74.9643 35.3851 72.7057 34.9844 70.6666 33.6189C67.6407 31.5926 66.0302 28.6973 66.1817 24.9193C66.3281 21.2698 68.0661 18.537 71.0962 16.7634C74.5678 14.7314 78.753 15.1946 81.6758 17.8356C82.0806 18.2014 82.0839 18.2047 81.7128 18.6012C81.34 18.9993 80.9461 19.3769 80.5879 19.7886C80.3676 20.0419 80.2034 20.0516 79.9581 19.8238C79.2365 19.1537 78.3957 18.711 77.4639 18.4434C73.6345 17.3434 69.7831 19.8981 69.057 23.9785C68.4013 27.6634 70.5098 31.2525 73.8233 32.1612C76.1807 32.8075 78.3705 32.4253 80.2305 30.6353C81.0911 29.807 81.5017 28.7494 81.7166 27.5868C81.7878 27.2016 81.7309 27.1381 81.3096 27.1356C79.8261 27.1265 78.3426 27.1316 76.859 27.1315C75.6465 27.1314 75.6464 27.1315 75.6465 25.8599C75.6465 25.5451 75.6648 25.2289 75.6423 24.9158C75.6143 24.5261 75.78 24.4203 76.1304 24.4244C77.4283 24.4395 78.7265 24.4304 80.0246 24.4303Z" fill="white"/>
</g>
<path fill-rule="evenodd" clip-rule="evenodd" d="M178.805 22.5322C179.675 22.5322 180.512 22.5397 181.349 22.5282C181.642 22.5241 181.801 22.6515 181.901 22.9228C182.068 23.3709 182.257 23.81 182.435 24.2537C183.238 26.2623 184.039 28.2722 184.848 30.2785C184.921 30.4589 184.951 30.6742 185.147 30.8C185.346 30.7487 185.354 30.5553 185.413 30.4045C186.302 28.1047 187.183 25.8018 188.079 23.5045C188.531 22.3455 188.334 22.5515 189.428 22.5329C189.947 22.5241 190.466 22.5241 190.985 22.5335C191.542 22.5435 191.564 22.5707 191.351 23.0821C190.749 24.5211 190.139 25.9563 189.529 27.3911C187.736 31.603 185.929 35.8085 184.162 40.0317C183.907 40.6409 183.593 40.8803 182.952 40.82C182.316 40.7603 181.672 40.8069 181.047 40.8069C180.906 40.4805 181.105 40.2775 181.2 40.0597C181.955 38.3312 182.71 36.6027 183.488 34.8849C183.678 34.4663 183.694 34.117 183.502 33.6784C181.985 30.1974 180.497 26.7034 178.999 23.2132C178.921 23.0312 178.805 22.8625 178.805 22.5322Z" fill="white"/>
<path fill-rule="evenodd" clip-rule="evenodd" d="M166.131 26.7288C166.131 29.7087 166.131 32.6885 166.13 35.6684C166.13 35.8738 166.127 36.0793 166.126 36.2848C166.126 36.51 166.011 36.6035 165.804 36.6032C165.089 36.602 164.374 36.5993 163.659 36.6053C163.401 36.6074 163.311 36.4722 163.318 36.2243C163.323 36.0447 163.317 35.8647 163.317 35.685C163.317 29.7253 163.317 23.7656 163.317 17.8059C163.317 17.7288 163.316 17.6518 163.317 17.5747C163.327 16.9082 163.327 16.9051 163.976 16.8991C164.494 16.8942 165.012 16.8923 165.529 16.8996C166.12 16.9081 166.123 16.9131 166.129 17.5581C166.135 18.1232 166.131 18.6884 166.131 19.2535C166.131 21.7453 166.131 24.2371 166.131 26.7288Z" fill="white"/>
<path fill-rule="evenodd" clip-rule="evenodd" d="M130.936 26.77V35.5487C130.936 35.7027 130.939 35.8569 130.935 36.0107C130.918 36.5854 130.917 36.5913 130.344 36.599C129.779 36.6067 129.214 36.6083 128.65 36.5984C128.14 36.5894 128.139 36.581 128.123 36.0246C128.12 35.922 128.122 35.8192 128.122 35.7166C128.122 29.7615 128.123 23.8062 128.121 17.8511C128.121 16.8107 128.096 16.8967 129.047 16.8964C129.416 16.8963 129.784 16.895 130.152 16.8967C130.93 16.9004 130.933 16.9011 130.935 17.6832C130.938 18.7356 130.936 19.7881 130.936 20.8406V26.77Z" fill="white"/>
<path fill-rule="evenodd" clip-rule="evenodd" d="M122.138 30.3187C120.945 32.2947 118.401 32.6213 116.769 31.008C115.141 29.3998 115.107 26.5133 116.729 24.8945C117.735 23.8916 118.947 23.5353 120.298 24.0115C121.708 24.5083 122.414 25.6326 122.682 27.0825C122.733 27.3616 122.725 27.6522 122.744 27.9373C122.756 28.7893 122.579 29.5888 122.138 30.3187ZM125.301 22.3592C125.301 22.229 125.292 22.0981 125.301 21.9686C125.326 21.6244 125.158 21.5098 124.843 21.5209C124.437 21.5352 124.03 21.5278 123.624 21.5284C122.633 21.53 122.633 21.5297 122.473 22.4961C122.32 22.5286 122.248 22.3996 122.156 22.3215C120.621 21.0147 118.882 20.8337 117.068 21.4836C112.261 23.2056 111.074 29.701 114.934 33.1139C116.348 34.3639 117.99 34.9337 119.871 34.6263C120.855 34.4655 121.695 34.0077 122.522 33.1604C122.522 33.8605 122.574 34.4038 122.512 34.9329C122.341 36.3862 121.694 37.5279 120.246 37.9537C118.796 38.38 117.475 38.1132 116.433 36.9058C116.216 36.6542 116.019 36.3745 115.863 36.0797C115.725 35.8193 115.591 35.7503 115.323 35.8768C114.909 36.0727 114.48 36.2372 114.058 36.4164C113.073 36.8349 113.073 36.8352 113.645 37.7604C115.143 40.185 117.857 41.2992 120.66 40.6439C122.831 40.1364 124.24 38.78 124.924 36.6198C125.224 35.6693 125.306 34.688 125.304 33.6918C125.296 29.9143 125.301 26.1368 125.301 22.3592Z" fill="white"/>
<path fill-rule="evenodd" clip-rule="evenodd" d="M155.365 26.3999C154.054 26.4381 152.739 26.3951 151.427 26.4173C150.986 26.4246 150.884 26.244 150.891 25.8669C150.909 24.9178 150.897 23.968 150.897 23.0186C150.897 22.0691 150.912 21.1193 150.89 20.1703C150.881 19.7697 151.03 19.6346 151.446 19.641C152.759 19.6607 154.073 19.616 155.384 19.6595C157.358 19.7252 158.828 21.1949 158.825 23.0358C158.822 24.8657 157.328 26.3428 155.365 26.3999ZM157.887 17.4327C156.9 17.0524 155.872 16.9085 154.822 16.9019C152.757 16.8887 150.692 16.8978 148.627 16.898C148.492 16.8981 148.358 16.9036 148.224 16.9004C147.956 16.8938 147.832 17.0177 147.837 17.2725C147.84 17.4522 147.835 17.6321 147.835 17.8118C147.835 20.7915 147.835 23.7712 147.835 26.7509C147.835 28.626 147.835 30.5013 147.835 32.3763C147.835 33.6093 147.848 34.8425 147.828 36.0752C147.822 36.4763 147.966 36.6214 148.383 36.6039C148.972 36.5791 149.563 36.601 150.153 36.5973C150.888 36.5927 150.893 36.5903 150.895 35.8764C150.898 33.9241 150.894 31.9719 150.896 30.0197C150.897 29.0937 150.821 29.1633 151.826 29.1616C152.899 29.1599 153.972 29.1713 155.044 29.1579C155.933 29.1467 156.805 29.0188 157.644 28.7214C160.505 27.7061 161.855 25.3742 161.905 23.1951C161.968 20.4715 160.247 18.3421 157.887 17.4327Z" fill="white"/>
<path fill-rule="evenodd" clip-rule="evenodd" d="M175.921 30.2947C175.482 31.7342 174.182 32.7102 172.817 32.7199C172.198 32.7186 171.762 32.6589 171.342 32.4719C170.004 31.8764 170.271 30.4017 171.048 29.8425C171.501 29.5164 172.007 29.3368 172.553 29.2433C173.613 29.0619 174.63 29.1941 175.619 29.6087C175.976 29.758 176.024 29.9545 175.921 30.2947ZM178.789 27.8055C178.772 26.2058 178.287 24.7879 176.953 23.7442C174.986 22.2062 171.481 22.1081 169.431 23.546C168.858 23.9476 168.381 24.4402 168.044 25.0556C167.925 25.2739 167.948 25.4096 168.195 25.507C168.842 25.762 169.488 26.0192 170.127 26.2919C170.333 26.3796 170.463 26.3324 170.561 26.1588C171.275 24.8873 173.573 24.7738 174.746 25.4743C175.515 25.933 176.006 26.5477 175.986 27.5709C175.798 27.5037 175.705 27.4731 175.614 27.4381C175.498 27.3932 175.387 27.3355 175.269 27.2993C173.155 26.6536 171.128 26.7959 169.252 28.0042C166.989 29.4612 167.106 32.4856 168.797 33.9495C169.933 34.9335 171.258 35.2698 172.739 35.1848C173.896 35.1185 174.852 34.6745 175.609 33.8146C175.706 33.7038 175.734 33.4748 176.009 33.5543C176.009 33.8414 176.02 34.133 176.006 34.4235C175.991 34.7335 176.118 34.8627 176.442 34.8546C177.015 34.8403 177.589 34.8565 178.163 34.8497C178.777 34.8423 178.791 34.8371 178.793 34.2331C178.799 32.0905 178.812 29.9479 178.789 27.8055Z" fill="white"/>
<path fill-rule="evenodd" clip-rule="evenodd" d="M95.1707 31.0225C94.373 32.3211 93.1499 32.8839 91.6356 32.635C90.1791 32.3955 89.289 31.4634 88.8314 30.0927C88.7012 29.7023 88.6277 29.2921 88.6539 28.8682C88.6998 27.4185 89.2194 26.2169 90.524 25.4746C92.224 24.5073 94.3446 25.1301 95.2673 26.8608C96.0129 28.2591 95.9933 29.6833 95.1707 31.0225ZM92.2528 22.5269C88.8327 22.4829 85.867 25.158 85.8848 28.8026C85.8039 32.0524 88.2125 35.1573 92.1401 35.197C96.0809 35.2368 98.5249 32.2224 98.5536 28.9525C98.5856 25.3173 95.8604 22.5733 92.2528 22.5269Z" fill="white"/>
<path fill-rule="evenodd" clip-rule="evenodd" d="M108.22 32.1102C106.684 33.1753 104.58 32.7675 103.455 31.2126C102.426 29.7905 102.51 27.5919 103.644 26.2527C105.344 24.2456 108.552 24.774 109.545 27.2304C109.756 27.7507 109.881 28.2958 109.865 28.8675C109.83 30.2102 109.341 31.3329 108.22 32.1102ZM106.33 22.5264C102.726 22.5183 99.9972 25.2268 99.9613 28.8063C99.9289 32.0162 102.231 35.1867 106.304 35.1974C110.209 35.2075 112.646 32.1741 112.632 28.8675C112.637 25.2702 109.918 22.5344 106.33 22.5264Z" fill="white"/>
<path fill-rule="evenodd" clip-rule="evenodd" d="M137.577 25.0814C138.685 24.8133 140.119 25.1883 140.5 26.3432C138.724 27.1002 136.943 27.8594 135.101 28.6447C135.019 26.9067 136.059 25.4489 137.577 25.0814ZM142.058 31.3245C141.554 30.9813 141.555 30.9859 141.165 31.4232C141.022 31.5841 140.872 31.7412 140.712 31.8847C139.195 33.243 136.349 32.9389 135.56 30.8236C135.727 30.6383 135.965 30.5827 136.179 30.4914C138.276 29.5972 140.377 28.7106 142.476 27.8207C143.829 27.2473 143.835 27.2427 143.18 25.9113C141.109 21.7016 136.655 21.8058 134.236 24.1127C131.957 26.2864 131.691 30.4237 133.686 32.8831C135.292 34.8632 137.383 35.5249 139.799 35.0504C141.394 34.7371 142.665 33.832 143.607 32.391C143.075 32.0247 142.569 31.6719 142.058 31.3245Z" fill="white"/>
</svg>
