<svg width="12" height="12" viewBox="0 0 12 12" fill="none" xmlns="http://www.w3.org/2000/svg">
<path d="M6.7522 8.99551H5.24775C4.25378 8.99551 3.30053 8.60065 2.59769 7.89781C1.89485 7.19497 1.49999 6.24172 1.49999 5.24776V5.24776C1.49999 4.25379 1.89485 3.30054 2.59769 2.5977C3.30053 1.89486 4.25378 1.5 5.24775 1.5H6.7522C7.74617 1.5 8.69944 1.89486 9.40228 2.5977C10.1051 3.30054 10.5 4.25379 10.5 5.24776V5.24776C10.5021 5.74518 10.4052 6.23807 10.215 6.69767C10.0247 7.15727 9.74483 7.57439 9.39169 7.92472C9.17218 8.13888 9.80395 9.5309 9.53625 9.69152C9.26856 9.85213 8.05857 8.79207 7.72662 8.88308C7.40779 8.96111 7.08043 8.99888 6.7522 8.99551V8.99551Z" stroke="#1C8A6A" stroke-width="0.8" stroke-linecap="round" stroke-linejoin="round"/>
<ellipse cx="3.99999" cy="5.5" rx="0.5" ry="0.5" fill="#1C8A6A"/>
<circle cx="5.99999" cy="5.5" r="0.5" fill="#1C8A6A"/>
<circle cx="7.99999" cy="5.5" r="0.5" fill="#1C8A6A"/>
</svg>
