<svg width="14" height="14" viewBox="0 0 14 14" fill="none" xmlns="http://www.w3.org/2000/svg">
<path fill-rule="evenodd" clip-rule="evenodd" d="M9.12 8.14C9.08667 8.10357 9.07 8.03786 9.07 7.94357V7.62929C9.07 7.53429 9.08667 7.47071 9.12 7.43643C9.15333 7.40214 9.21333 7.38429 9.3 7.38429H9.58933C9.68 7.38429 9.74267 7.40214 9.778 7.43643C9.81267 7.47071 9.83 7.53429 9.83 7.62929V7.94357C9.83 8.03786 9.81267 8.10357 9.778 8.14C9.74333 8.17571 9.68 8.19357 9.58933 8.19357H9.30067C9.21333 8.19357 9.15333 8.17571 9.12 8.14ZM9.12 6.39357C9.08667 6.35929 9.07 6.29357 9.07 6.19929V5.88071C9.07 5.78571 9.08667 5.72 9.12 5.68429C9.15333 5.64786 9.21333 5.62929 9.3 5.62929H9.58933C9.68 5.62929 9.74267 5.64786 9.778 5.68429C9.81267 5.72 9.83 5.78571 9.83 5.88071V6.19929C9.83 6.29429 9.81267 6.35929 9.778 6.39357C9.74333 6.42786 9.68 6.44357 9.58933 6.44357H9.30067C9.21333 6.44357 9.15333 6.42786 9.12 6.39357ZM7.48467 9.88857C7.45133 9.85286 7.43533 9.78786 7.43533 9.69286V9.37357C7.43533 9.27857 7.452 9.21357 7.48467 9.17929C7.518 9.145 7.578 9.12857 7.66467 9.12857H7.95933C8.05 9.12857 8.112 9.145 8.14533 9.17857C8.17867 9.21357 8.19533 9.27857 8.19533 9.37357V9.69286C8.19533 9.78786 8.17867 9.85286 8.14533 9.88857C8.112 9.92429 8.05 9.94286 7.95867 9.94286H7.66533C7.578 9.94286 7.518 9.925 7.48467 9.88857ZM7.48467 8.14C7.45133 8.10357 7.43533 8.03786 7.43533 7.94357V7.62929C7.43533 7.53429 7.452 7.47071 7.48467 7.43643C7.518 7.40214 7.578 7.38429 7.66467 7.38429H7.95933C8.05 7.38429 8.112 7.40214 8.14533 7.43643C8.17867 7.47071 8.19533 7.53429 8.19533 7.62929V7.94357C8.19533 8.03786 8.17867 8.10357 8.14533 8.14C8.112 8.17571 8.05 8.19357 7.95867 8.19357H7.66533C7.578 8.19357 7.518 8.17571 7.48467 8.14ZM7.48467 6.39357C7.45133 6.35929 7.43533 6.29357 7.43533 6.19929V5.88071C7.43533 5.78571 7.452 5.72 7.48467 5.68429C7.518 5.64786 7.578 5.62929 7.66467 5.62929H7.95933C8.05 5.62929 8.112 5.64786 8.14533 5.68429C8.17867 5.72 8.19533 5.78571 8.19533 5.88071V6.19929C8.19533 6.29429 8.17867 6.35929 8.14533 6.39357C8.112 6.42786 8.05 6.44357 7.95867 6.44357H7.66533C7.578 6.44357 7.518 6.42786 7.48467 6.39357ZM5.85533 9.88857C5.822 9.85286 5.80533 9.78786 5.80533 9.69286V9.37357C5.80533 9.27857 5.822 9.21357 5.85533 9.17929C5.888 9.145 5.94867 9.12857 6.03533 9.12857H6.32867C6.41667 9.12857 6.478 9.145 6.51267 9.17857C6.548 9.21357 6.56467 9.27857 6.56467 9.37357V9.69286C6.56467 9.78786 6.548 9.85286 6.51267 9.88857C6.478 9.92429 6.41667 9.94286 6.32933 9.94286H6.036C5.94867 9.94286 5.888 9.925 5.85533 9.88857ZM5.85533 8.14C5.822 8.10357 5.80533 8.03786 5.80533 7.94357V7.62929C5.80533 7.53429 5.822 7.47071 5.85533 7.43643C5.888 7.40214 5.94867 7.38429 6.03533 7.38429H6.32867C6.41667 7.38429 6.478 7.40214 6.51267 7.43643C6.548 7.47071 6.56467 7.53429 6.56467 7.62929V7.94357C6.56467 8.03786 6.548 8.10357 6.51267 8.14C6.478 8.17571 6.41667 8.19357 6.32933 8.19357H6.036C5.94867 8.19357 5.888 8.17571 5.85533 8.14ZM4.22467 6.39286C4.19133 6.35857 4.17533 6.29286 4.17533 6.19857V5.88C4.17533 5.785 4.19133 5.71929 4.22467 5.68357C4.258 5.64714 4.318 5.62857 4.406 5.62857H4.69933C4.786 5.62857 4.848 5.64714 4.88267 5.68357C4.91733 5.71929 4.93533 5.785 4.93533 5.88V6.19857C4.93533 6.29357 4.91733 6.35857 4.882 6.39286C4.848 6.42714 4.78667 6.44286 4.69933 6.44286H4.406C4.318 6.44286 4.258 6.42714 4.22467 6.39286ZM5.85533 6.39286C5.822 6.35857 5.80533 6.29286 5.80533 6.19857V5.88C5.80533 5.785 5.822 5.71929 5.85533 5.68357C5.888 5.64714 5.94867 5.62857 6.03533 5.62857H6.32867C6.41667 5.62857 6.478 5.64714 6.51267 5.68357C6.548 5.71929 6.56467 5.785 6.56467 5.88V6.19857C6.56467 6.29357 6.548 6.35857 6.51267 6.39286C6.478 6.42714 6.41667 6.44286 6.32933 6.44286H6.036C5.94867 6.44286 5.888 6.42714 5.85533 6.39286ZM4.22467 9.88786C4.19133 9.85214 4.17533 9.78714 4.17533 9.69214V9.37286C4.17533 9.27786 4.19133 9.21286 4.22467 9.17857C4.258 9.14429 4.318 9.12786 4.406 9.12786H4.694C4.78067 9.12786 4.84333 9.14429 4.88 9.17786C4.91667 9.21286 4.93533 9.27786 4.93533 9.37286V9.69214C4.93533 9.78714 4.91667 9.85214 4.88 9.88786C4.84333 9.92357 4.78133 9.94214 4.69333 9.94214H4.40667C4.31867 9.94214 4.25867 9.92429 4.22533 9.88786H4.22467ZM4.22467 8.13929C4.19133 8.10286 4.17533 8.03714 4.17533 7.94286V7.62857C4.17533 7.53357 4.19133 7.47 4.22467 7.43571C4.258 7.40143 4.318 7.38357 4.406 7.38357H4.694C4.78067 7.38357 4.84333 7.40143 4.88 7.43571C4.91667 7.47 4.93533 7.53357 4.93533 7.62857V7.94286C4.93533 8.03714 4.91667 8.10286 4.88 8.13929C4.84333 8.175 4.78133 8.19286 4.69333 8.19286H4.40667C4.31867 8.19286 4.25867 8.175 4.22533 8.13929H4.22467ZM10.4333 11.025C10.646 11.025 10.8107 10.9643 10.9253 10.8429C11.0407 10.7207 11.0987 10.5386 11.0987 10.2957V5.28143C11.0987 5.03786 11.0407 4.85571 10.9253 4.73429C10.8107 4.61286 10.6453 4.55214 10.4333 4.55214H3.562C3.34867 4.55214 3.18533 4.61286 3.072 4.73429C2.958 4.85571 2.90133 5.03786 2.90133 5.28143V10.2957C2.90133 10.5386 2.958 10.7207 3.072 10.8429C3.18533 10.9643 3.34867 11.025 3.562 11.025H10.4333ZM2.40333 11.5693C2.13467 11.2829 2 10.855 2 10.2843V3.71643C2 3.14643 2.13467 2.71786 2.40333 2.43071C2.67267 2.14286 3.07133 2 3.59867 2H10.4013C10.9293 2 11.3273 2.14429 11.5967 2.43357C11.8653 2.72214 12 3.14929 12 3.71571V10.285C12 10.8507 11.8653 11.2779 11.5967 11.5671C11.3273 11.8557 10.9293 12 10.4013 12H3.59867C3.07133 12 2.672 11.8564 2.40333 11.57V11.5693Z" fill="#DBDBDB"/>
</svg>
