<svg width="24" height="24" viewBox="0 0 24 24" fill="none" xmlns="http://www.w3.org/2000/svg">
<path fill-rule="evenodd" clip-rule="evenodd" d="M5.63606 5.63606C7.32389 3.94823 9.61305 3 12 3C14.3869 3 16.6761 3.94823 18.3639 5.63606C20.0518 7.32389 21 9.61305 21 12C21 14.3869 20.0518 16.6761 18.3639 18.3639C16.6761 20.0518 14.3869 21 12 21C9.61305 21 7.32389 20.0518 5.63606 18.3639C3.94823 16.6761 3 14.3869 3 12C3 9.61305 3.94823 7.32389 5.63606 5.63606ZM14.5655 9.09232C15.4214 10.0576 16.0739 11.1416 16.3732 12.4239C16.9648 14.9211 15.4214 17.2864 13.1019 17.8539C12.5298 18.0071 11.9334 18.0402 11.3484 17.9513C10.7635 17.8624 10.2021 17.6533 9.698 17.3365C8.50084 16.6002 7.80449 15.4968 7.55608 14.0979C7.40544 13.2522 7.57503 12.4372 7.86534 11.6437C8.00459 11.2664 8.17515 10.902 8.37513 10.5546C8.47623 10.3815 8.58365 10.211 8.69738 10.0433C8.75524 9.95948 8.81409 9.87562 8.87395 9.79381L8.87398 9.79378C8.9029 9.75391 8.93182 9.71404 8.96174 9.67621C8.97771 9.65576 8.99866 9.62918 9.01362 9.63327C9.02563 9.63655 9.028 9.68261 9.02847 9.69172C9.02859 9.69397 9.02859 9.69397 9.02859 9.69053C9.01664 9.8594 9.03593 10.0291 9.08545 10.1906C9.12713 10.3598 9.21751 10.5123 9.34484 10.6283C9.61421 10.8675 9.87159 11.1099 10.0432 11.4361L10.0408 11.4233C10.0057 11.2374 9.97073 11.0524 9.94342 10.8655C9.73991 9.4717 10.117 8.28345 11.1146 7.30073C11.6594 6.76183 12.4126 6.21372 12.9633 6C12.9536 6.03084 12.9456 6.05771 12.938 6.08287C12.9324 6.10191 12.927 6.11998 12.9214 6.13805C12.7627 6.62889 12.6789 7.132 12.7787 7.6433C12.8449 7.95841 12.9815 8.2535 13.1777 8.50535C13.3354 8.7201 13.497 8.92461 13.6636 9.12913C14.1734 9.74678 14.3141 10.4657 14.2203 11.249C14.2073 11.3635 14.1933 11.478 14.1784 11.6007C14.5216 11.3154 14.6622 10.2847 14.5216 9.06573C14.5374 9.07236 14.5522 9.08131 14.5655 9.09232ZM11.7489 16.4377C11.9729 16.4718 12.2014 16.4592 12.4205 16.4008C12.6369 16.3495 12.8413 16.2549 13.0219 16.1223C13.2024 15.9897 13.3556 15.8218 13.4725 15.6283C13.5894 15.4348 13.6679 15.2194 13.7032 14.9947C13.7386 14.7699 13.7302 14.5402 13.6786 14.3188C13.5553 13.8392 13.315 13.3997 12.9802 13.0416C12.9755 13.0375 12.9701 13.0344 12.9643 13.0324C13.0181 13.4987 12.9653 13.8934 12.8326 14.0028C12.8344 13.986 12.837 13.9695 12.8396 13.9531C12.8441 13.9247 12.8485 13.8968 12.8485 13.8688C12.873 13.7248 12.8665 13.577 12.8296 13.4357C12.7928 13.2945 12.7264 13.1631 12.635 13.0508C12.5712 12.9731 12.5093 12.8933 12.4485 12.8125C12.373 12.7161 12.3204 12.603 12.2948 12.4822C12.2626 12.2885 12.2812 12.0894 12.3487 11.9055L12.3647 11.8523C12.102 11.9746 11.8622 12.1431 11.6564 12.3503C11.4749 12.5205 11.3385 12.7351 11.26 12.974C11.1814 13.213 11.1634 13.4684 11.2074 13.7165C11.2142 13.7617 11.222 13.8065 11.2299 13.8512C11.2348 13.8793 11.2397 13.9073 11.2443 13.9353C11.1747 13.8175 11.0848 13.7136 10.979 13.6285C10.9169 13.5721 10.8783 13.4934 10.8712 13.4087C10.8682 13.346 10.8682 13.2832 10.8712 13.2205C10.8663 13.2262 10.862 13.231 10.8581 13.2354C10.8493 13.2453 10.8428 13.2526 10.8373 13.2604C10.6597 13.4903 10.517 13.7465 10.4143 14.0202C10.2908 14.3165 10.2497 14.6422 10.2956 14.961C10.3341 15.2173 10.4278 15.4617 10.5698 15.6764C10.7118 15.8911 10.8986 16.0708 11.1166 16.2024C11.3098 16.3236 11.5249 16.4036 11.7489 16.4377Z" fill="#3498D0"/>
</svg>
