<svg width="12" height="12" viewBox="0 0 12 12" fill="none" xmlns="http://www.w3.org/2000/svg">
<mask id="mask0_647_4342" style="mask-type:alpha" maskUnits="userSpaceOnUse" x="1" y="1" width="10" height="9">
<path d="M1.5 1.5H10.6071V10H1.5V1.5Z" fill="#383535"/>
</mask>
<g mask="url(#mask0_647_4342)">
<path fill-rule="evenodd" clip-rule="evenodd" d="M7.908 6.719C7.878 6.68804 7.863 6.63218 7.863 6.55204V6.28489C7.863 6.20414 7.878 6.15011 7.908 6.12096C7.938 6.09182 7.992 6.07664 8.07 6.07664H8.3304C8.412 6.07664 8.4684 6.09182 8.5002 6.12096C8.5314 6.15011 8.547 6.20414 8.547 6.28489V6.55204C8.547 6.63218 8.5314 6.68804 8.5002 6.719C8.469 6.74936 8.412 6.76454 8.3304 6.76454H8.0706C7.992 6.76454 7.938 6.74936 7.908 6.719ZM7.908 5.23454C7.878 5.20539 7.863 5.14954 7.863 5.06939V4.79861C7.863 4.71786 7.878 4.662 7.908 4.63164C7.938 4.60068 7.992 4.58489 8.07 4.58489H8.3304C8.412 4.58489 8.4684 4.60068 8.5002 4.63164C8.5314 4.662 8.547 4.71786 8.547 4.79861V5.06939C8.547 5.15014 8.5314 5.20539 8.5002 5.23454C8.469 5.26368 8.412 5.27704 8.3304 5.27704H8.0706C7.992 5.27704 7.938 5.26368 7.908 5.23454ZM6.4362 8.20529C6.4062 8.17493 6.3918 8.11968 6.3918 8.03893V7.76754C6.3918 7.68679 6.4068 7.63154 6.4362 7.60239C6.4662 7.57325 6.5202 7.55929 6.5982 7.55929H6.8634C6.945 7.55929 7.0008 7.57325 7.0308 7.60179C7.0608 7.63154 7.0758 7.68679 7.0758 7.76754V8.03893C7.0758 8.11968 7.0608 8.17493 7.0308 8.20529C7.0008 8.23564 6.945 8.25143 6.8628 8.25143H6.5988C6.5202 8.25143 6.4662 8.23625 6.4362 8.20529ZM6.4362 6.719C6.4062 6.68804 6.3918 6.63218 6.3918 6.55204V6.28489C6.3918 6.20414 6.4068 6.15011 6.4362 6.12096C6.4662 6.09182 6.5202 6.07664 6.5982 6.07664H6.8634C6.945 6.07664 7.0008 6.09182 7.0308 6.12096C7.0608 6.15011 7.0758 6.20414 7.0758 6.28489V6.55204C7.0758 6.63218 7.0608 6.68804 7.0308 6.719C7.0008 6.74936 6.945 6.76454 6.8628 6.76454H6.5988C6.5202 6.76454 6.4662 6.74936 6.4362 6.719ZM6.4362 5.23454C6.4062 5.20539 6.3918 5.14954 6.3918 5.06939V4.79861C6.3918 4.71786 6.4068 4.662 6.4362 4.63164C6.4662 4.60068 6.5202 4.58489 6.5982 4.58489H6.8634C6.945 4.58489 7.0008 4.60068 7.0308 4.63164C7.0608 4.662 7.0758 4.71786 7.0758 4.79861V5.06939C7.0758 5.15014 7.0608 5.20539 7.0308 5.23454C7.0008 5.26368 6.945 5.27704 6.8628 5.27704H6.5988C6.5202 5.27704 6.4662 5.26368 6.4362 5.23454ZM4.9698 8.20529C4.9398 8.17493 4.9248 8.11968 4.9248 8.03893V7.76754C4.9248 7.68679 4.9398 7.63154 4.9698 7.60239C4.9992 7.57325 5.0538 7.55929 5.1318 7.55929H5.3958C5.475 7.55929 5.5302 7.57325 5.5614 7.60179C5.5932 7.63154 5.6082 7.68679 5.6082 7.76754V8.03893C5.6082 8.11968 5.5932 8.17493 5.5614 8.20529C5.5302 8.23564 5.475 8.25143 5.3964 8.25143H5.1324C5.0538 8.25143 4.9992 8.23625 4.9698 8.20529ZM4.9698 6.719C4.9398 6.68804 4.9248 6.63218 4.9248 6.55204V6.28489C4.9248 6.20414 4.9398 6.15011 4.9698 6.12096C4.9992 6.09182 5.0538 6.07664 5.1318 6.07664H5.3958C5.475 6.07664 5.5302 6.09182 5.5614 6.12096C5.5932 6.15011 5.6082 6.20414 5.6082 6.28489V6.55204C5.6082 6.63218 5.5932 6.68804 5.5614 6.719C5.5302 6.74936 5.475 6.76454 5.3964 6.76454H5.1324C5.0538 6.76454 4.9992 6.74936 4.9698 6.719ZM3.5022 5.23393C3.4722 5.20479 3.4578 5.14893 3.4578 5.06879V4.798C3.4578 4.71725 3.4722 4.66139 3.5022 4.63104C3.5322 4.60007 3.5862 4.58429 3.6654 4.58429H3.9294C4.0074 4.58429 4.0632 4.60007 4.0944 4.63104C4.1256 4.66139 4.1418 4.71725 4.1418 4.798V5.06879C4.1418 5.14954 4.1256 5.20479 4.0938 5.23393C4.0632 5.26307 4.008 5.27643 3.9294 5.27643H3.6654C3.5862 5.27643 3.5322 5.26307 3.5022 5.23393ZM4.9698 5.23393C4.9398 5.20479 4.9248 5.14893 4.9248 5.06879V4.798C4.9248 4.71725 4.9398 4.66139 4.9698 4.63104C4.9992 4.60007 5.0538 4.58429 5.1318 4.58429H5.3958C5.475 4.58429 5.5302 4.60007 5.5614 4.63104C5.5932 4.66139 5.6082 4.71725 5.6082 4.798V5.06879C5.6082 5.14954 5.5932 5.20479 5.5614 5.23393C5.5302 5.26307 5.475 5.27643 5.3964 5.27643H5.1324C5.0538 5.27643 4.9992 5.26307 4.9698 5.23393ZM3.5022 8.20468C3.4722 8.17432 3.4578 8.11907 3.4578 8.03832V7.76693C3.4578 7.68618 3.4722 7.63093 3.5022 7.60179C3.5322 7.57264 3.5862 7.55868 3.6654 7.55868H3.9246C4.0026 7.55868 4.059 7.57264 4.092 7.60118C4.125 7.63093 4.1418 7.68618 4.1418 7.76693V8.03832C4.1418 8.11907 4.125 8.17432 4.092 8.20468C4.059 8.23504 4.0032 8.25082 3.924 8.25082H3.666C3.5868 8.25082 3.5328 8.23564 3.5028 8.20468H3.5022ZM3.5022 6.71839C3.4722 6.68743 3.4578 6.63157 3.4578 6.55143V6.28429C3.4578 6.20354 3.4722 6.1495 3.5022 6.12036C3.5322 6.09121 3.5862 6.07604 3.6654 6.07604H3.9246C4.0026 6.07604 4.059 6.09121 4.092 6.12036C4.125 6.1495 4.1418 6.20354 4.1418 6.28429V6.55143C4.1418 6.63157 4.125 6.68743 4.092 6.71839C4.059 6.74875 4.0032 6.76393 3.924 6.76393H3.666C3.5868 6.76393 3.5328 6.74875 3.5028 6.71839H3.5022ZM9.09 9.17125C9.2814 9.17125 9.4296 9.11964 9.5328 9.01643C9.6366 8.91261 9.6888 8.75779 9.6888 8.55136V4.28921C9.6888 4.08218 9.6366 3.92736 9.5328 3.82414C9.4296 3.72093 9.2808 3.66932 9.09 3.66932H2.9058C2.7138 3.66932 2.5668 3.72093 2.4648 3.82414C2.3622 3.92736 2.3112 4.08218 2.3112 4.28921V8.55136C2.3112 8.75779 2.3622 8.91261 2.4648 9.01643C2.5668 9.11964 2.7138 9.17125 2.9058 9.17125H9.09ZM1.863 9.63389C1.6212 9.39043 1.5 9.02675 1.5 8.54164V2.95896C1.5 2.47446 1.6212 2.11018 1.863 1.86611C2.1054 1.62143 2.4642 1.5 2.9388 1.5H9.0612C9.5364 1.5 9.8946 1.62264 10.137 1.86854C10.3788 2.11382 10.5 2.47689 10.5 2.95836V8.54225C10.5 9.02311 10.3788 9.38618 10.137 9.63207C9.8946 9.87736 9.5364 10 9.0612 10H2.9388C2.4642 10 2.1048 9.87796 1.863 9.6345V9.63389Z" fill="#999696"/>
</g>
</svg>
