<svg width="24" height="24" viewBox="0 0 24 24" fill="none" xmlns="http://www.w3.org/2000/svg">
<path fill-rule="evenodd" clip-rule="evenodd" d="M7.5 3C5.01472 3 3 5.01472 3 7.5V16.5C3 18.9853 5.01472 21 7.5 21H16.5C18.9853 21 21 18.9853 21 16.5V7.5C21 5.01472 18.9853 3 16.5 3H7.5ZM11.3537 16.9793C9.41293 13.9212 7.99997 11.6948 7.99997 9.80067C7.99997 7.70133 9.9013 6 12 6C14.0986 6 16 7.70133 16 9.80067C16 11.6948 14.587 13.9212 12.6462 16.9793C12.4366 17.3097 12.2208 17.6497 12 18C11.7791 17.6497 11.5634 17.3097 11.3537 16.9793ZM12 8.40001C11.2106 8.40001 10.5706 9.07134 10.5706 9.90001C10.5706 10.7293 11.2106 11.4 12 11.4C12.7893 11.4 13.4286 10.7293 13.4286 9.90001C13.4286 9.07134 12.7893 8.40001 12 8.40001Z" fill="#143667"/>
</svg>
