<svg width="24" height="24" viewBox="0 0 24 24" fill="none" xmlns="http://www.w3.org/2000/svg">
<path fill-rule="evenodd" clip-rule="evenodd" d="M5.63606 5.63606C7.32389 3.94823 9.61305 3 12 3C14.3869 3 16.6761 3.94823 18.3639 5.63606C20.0518 7.32389 21 9.61305 21 12C21 14.3869 20.0518 16.6761 18.3639 18.3639C16.6761 20.0518 14.3869 21 12 21C9.61305 21 7.32389 20.0518 5.63606 18.3639C3.94823 16.6761 3 14.3869 3 12C3 9.61305 3.94823 7.32389 5.63606 5.63606ZM9.00864 15.1773C8.9389 15.3578 8.92022 15.554 8.95465 15.7443C8.98663 15.8404 9.03951 15.9282 9.10955 16.0014C9.17959 16.0745 9.26504 16.1312 9.35966 16.1674C9.49493 16.2729 9.6661 16.3214 9.83663 16.3023C10.0308 16.2657 10.213 16.1823 10.3677 16.0593L12.1677 14.7273L13.9677 16.0593C14.1223 16.1823 14.3045 16.2657 14.4986 16.3023C14.6691 16.3214 14.8404 16.2729 14.9756 16.1674C15.1126 16.0641 15.2057 15.9131 15.2366 15.7443C15.2677 15.5531 15.2459 15.3571 15.1736 15.1773L14.4536 13.0534L16.2536 11.7483C16.4131 11.6374 16.5428 11.4891 16.6316 11.3164C16.6672 11.2387 16.6857 11.1543 16.6857 11.0688C16.6857 10.9834 16.6672 10.899 16.6316 10.8214C16.6072 10.7405 16.5667 10.6653 16.5126 10.6003C16.4585 10.5354 16.3918 10.482 16.3166 10.4433C16.1437 10.3565 15.9521 10.3133 15.7586 10.3174H13.5177L12.8336 8.17537C12.7827 7.98796 12.6834 7.81721 12.5456 7.68033C12.4855 7.62058 12.4137 7.57379 12.3348 7.54283C12.2558 7.51187 12.1714 7.49745 12.0866 7.50037C12.0033 7.49815 11.9204 7.51298 11.8431 7.54393C11.7657 7.57488 11.6954 7.62126 11.6366 7.68033C11.4993 7.81907 11.3974 7.98891 11.3396 8.17537L10.6646 10.3174H8.41461C8.22401 10.3133 8.03538 10.3566 7.86562 10.4433C7.79045 10.482 7.7238 10.5354 7.66968 10.6003C7.61557 10.6653 7.57511 10.7405 7.55065 10.8214C7.51723 10.8996 7.5 10.9838 7.5 11.0688C7.5 11.1539 7.51723 11.2381 7.55065 11.3164C7.64586 11.4874 7.77807 11.635 7.93764 11.7483L9.73764 13.0534L9.00864 15.1773Z" fill="#1C8A6A"/>
</svg>
