<svg width="99" height="19" viewBox="0 0 99 19" fill="none" xmlns="http://www.w3.org/2000/svg">
<path fill-rule="evenodd" clip-rule="evenodd" d="M88.873 16.2646C85.3255 16.2646 82.5456 13.2458 82.5456 9.57043C82.5456 5.89525 85.3255 2.8763 88.873 2.8763C92.4206 2.8763 95.2005 5.89525 95.2005 9.57043C95.2005 13.2458 92.4206 16.2646 88.873 16.2646ZM88.8729 0.145996C83.6841 0.145996 79.4745 4.37262 79.4745 9.57043C79.4745 14.7683 83.6841 18.9949 88.8729 18.9949C94.062 18.9949 98.2716 14.7683 98.2716 9.57043C98.2716 4.37262 94.062 0.145996 88.8729 0.145996Z" fill="black"/>
<path fill-rule="evenodd" clip-rule="evenodd" d="M68.5676 18.7585H71.6122V3.05986H78.1249V0.382324H62.0548V3.05986H68.5676V18.7585Z" fill="black"/>
<path fill-rule="evenodd" clip-rule="evenodd" d="M42.9408 18.7585H45.9325V5.42259L55.5427 18.7585H58.455V0.382324H55.4633V13.7181L45.853 0.382324H42.9408V18.7585Z" fill="black"/>
<path fill-rule="evenodd" clip-rule="evenodd" d="M30.8424 18.9949C35.449 18.9949 38.6259 15.7397 38.6259 11.198V0.382324H35.5813V11.1194C35.5813 14.2696 33.6487 16.2646 30.8424 16.2646C28.0361 16.2646 26.1036 14.2696 26.1036 11.1194V0.382324H23.0588V11.198C23.0588 15.7397 26.2358 18.9949 30.8424 18.9949Z" fill="black"/>
<path fill-rule="evenodd" clip-rule="evenodd" d="M0 18.7585H2.93861V5.39628L8.10125 12.983H10.9606L15.8053 5.42259V18.7585H18.744V0.382324H15.6996L9.53083 9.96417L3.09764 0.382324H0V18.7585Z" fill="black"/>
</svg>
