<svg width="42" height="42" viewBox="0 0 42 42" fill="none" xmlns="http://www.w3.org/2000/svg">
<path fill-rule="evenodd" clip-rule="evenodd" d="M41 21C41 9.95455 32.0436 1 21 1C9.95454 1 1 9.95455 1 21C1 32.0455 9.95454 41 21 41C32.0436 41 41 32.0455 41 21Z" fill="white"/>
<path d="M41 21C41 9.95455 32.0436 1 21 1C9.95455 1 1 9.95455 1 21C1 32.0455 9.95455 41 21 41C32.0436 41 41 32.0455 41 21" stroke="#DBDBDB"/>
<path d="M22.9789 28.3403L15.6596 21.021L23.3403 13.3403" stroke="#383535" stroke-width="1.5" stroke-linecap="round" stroke-linejoin="round"/>
</svg>
