<svg width="42" height="42" viewBox="0 0 42 42" fill="none" xmlns="http://www.w3.org/2000/svg">
<path fill-rule="evenodd" clip-rule="evenodd" d="M1 21C1 9.95455 9.95636 1 21 1C32.0455 1 41 9.95455 41 21C41 32.0455 32.0455 41 21 41C9.95636 41 1 32.0455 1 21Z" fill="white"/>
<path d="M1 21C1 9.95455 9.95636 1 21 1C32.0455 1 41 9.95455 41 21C41 32.0455 32.0455 41 21 41C9.95636 41 1 32.0455 1 21" stroke="#DBDBDB"/>
<path d="M19.0211 28.3403L26.3404 21.021L18.6597 13.3403" stroke="#383535" stroke-width="1.5" stroke-linecap="round" stroke-linejoin="round"/>
</svg>
