<svg width="800" height="800" viewBox="0 0 800 800" fill="none" xmlns="http://www.w3.org/2000/svg">
<path d="M449.06 330.733H515.726V497.4H449.06V330.733ZM449.026 530.733H515.693V597.4H449.026V530.733Z" fill="#FFAD33"/>
<path d="M547.292 137.4C535.692 115.567 513.092 102 488.359 102C463.626 102 441.026 115.567 429.426 137.433L184.826 599.533C179.398 609.681 176.709 621.068 177.025 632.572C177.341 644.076 180.65 655.299 186.626 665.133C192.516 675.013 200.88 683.185 210.894 688.844C220.908 694.502 232.224 697.451 243.726 697.4H732.992C756.592 697.4 777.959 685.333 790.126 665.133C796.092 655.295 799.396 644.073 799.711 632.572C800.027 621.07 797.344 609.684 791.926 599.533L547.292 137.4ZM243.726 630.733L488.359 168.633L733.159 630.733H243.726Z" fill="#FFAD33"/>
</svg>
