<?xml version="1.0" encoding="UTF-8"?>
<svg id="Layer_6" data-name="Layer 6" xmlns="http://www.w3.org/2000/svg" viewBox="0 0 104 104">
  <defs>
    <style>
      .cls-1, .cls-2, .cls-3 {
        stroke-width: 0px;
      }

      .cls-2 {
        fill: #f6f6f6;
      }

      .cls-3 {
        fill: #ff7da5;
      }
    </style>
  </defs>
  <rect class="cls-2" width="104" height="104" rx="26" ry="26"/>
  <g>
    <g>
      <polygon class="cls-3" points="82.37 54.13 82.37 73.49 73 68.24 44.64 72.49 44.64 69.3 82.37 54.13"/>
      <path class="cls-1" d="m47.38,47.23l-1.27-3.44-2.13-5.77-4.11.65-5.54,16.49,3.97-.63.98-2.87,3.87-.61,1.33-.21.94,2.57,1.33-.22,2.69-.42-2.05-5.53Zm-4.24.72l-2.82.45,1.58-5.2,1.24,3.78.31.93-.31.05Z"/>
    </g>
    <g>
      <path class="cls-1" d="m60.57,41.49v-13.9l-40.51,6.41v39.9l11.29-10.91,11.78-1.86v13.9l29.21-4.63,11.3,7.33v-39.89l-23.08,3.65Zm-29.77,17.95l-1.12.18-.81.79-5.2,5.01v-28.34l33.31-5.27v23.49l-10.23,1.62-3.6.57-12.34,1.95Zm49.26,11.66l-5.74-3.73-1.16-.75-1.36.22-25.06,3.97v-10.26l10.53-1.67h0s3.3-.52,3.3-.52v-14.29l.29,1.01,19.19-3.04v29.05Z"/>
      <polygon class="cls-1" points="60.57 44.08 60.57 45.14 60.86 45.09 60.57 44.08"/>
    </g>
  </g>
</svg>