<?xml version="1.0" encoding="UTF-8"?>
<svg id="Layer_6" data-name="Layer 6" xmlns="http://www.w3.org/2000/svg" viewBox="0 0 104 104">
  <defs>
    <style>
      .cls-1, .cls-2, .cls-3 {
        stroke-width: 0px;
      }

      .cls-2 {
        fill: #f6f6f6;
      }

      .cls-3 {
        fill: #ff7da5;
      }
    </style>
  </defs>
  <rect class="cls-2" width="104" height="104" rx="26" ry="26"/>
  <g>
    <polygon class="cls-3" points="55.49 75.89 73.72 72.94 74.06 56.99 55.49 66.69 55.49 75.89"/>
    <g>
      <path class="cls-1" d="m53.8,45.41l.06,32.78,21.89-3.48v-32.8l-21.95,3.5Zm18.35,26.22l-14.7,2.35-.05-25.5,14.75-2.35v25.5Z"/>
      <path class="cls-1" d="m47.02,47.11v-14.53l-2.7.42-1.21.19v-11.78l-8.56,4.03.03,9.11-1.31.21-2.62.41.03,14.54-2.79.44.06,31.98,21.89-3.49v-31.99l-2.82.45Zm-12.77-8.87l9.17-1.45v10.89l-9.14,1.46-.03-10.9Zm11.99,37.33l-14.7,2.34-.05-23.83v-.85l14.75-2.35v24.7Z"/>
    </g>
  </g>
</svg>