<?xml version="1.0" encoding="UTF-8"?>
<svg id="Layer_6" data-name="Layer 6" xmlns="http://www.w3.org/2000/svg" viewBox="0 0 104 104">
  <defs>
    <style>
      .cls-1, .cls-2, .cls-3 {
        stroke-width: 0px;
      }

      .cls-2 {
        fill: #f6f6f6;
      }

      .cls-3 {
        fill: #ff7da5;
      }
    </style>
  </defs>
  <rect class="cls-2" width="104" height="104" rx="26" ry="26"/>
  <g>
    <circle class="cls-3" cx="65.25" cy="58.18" r="7.19"/>
    <path class="cls-1" d="m80.61,25.74l-57.58,9.12v29.15l33.24-5.27c.29,4.71,4.2,8.44,8.98,8.44s9-4.03,9-9c0-.77-.1-1.52-.29-2.24l6.65-1.05v-29.15Zm-15.36,37.85c-2.98,0-5.4-2.42-5.4-5.4h0c0-1.56.66-2.94,1.7-3.92.96-.92,2.26-1.48,3.7-1.48.83,0,1.61.19,2.31.52,1.32.63,2.36,1.79,2.82,3.2.18.53.27,1.09.27,1.67,0,2.98-2.42,5.4-5.4,5.4Zm11.76-11.77l-4.73.75c-1.65-2.06-4.18-3.38-7.03-3.38-3.85,0-7.14,2.42-8.42,5.82l-30.19,4.79v-21.86l50.38-7.98v21.86Z"/>
    <path class="cls-1" d="m46.35,66.71c2.98,0,5.4,2.42,5.4,5.4s-2.42,5.4-5.4,5.4-5.4-2.42-5.4-5.4,2.42-5.4,5.4-5.4h0Zm0-3.6c-4.97,0-9,4.03-9,9s4.03,9,9,9,9-4.03,9-9-4.03-9-9-9h0Z"/>
    <polygon class="cls-1" points="59.63 36.71 56.92 37.14 55.14 48.02 53.09 37.75 50.21 38.2 48.18 49.12 46.38 38.81 43.62 39.25 44.61 44.34 41.92 44.76 41.92 47.09 45.05 46.6 46.29 53.04 49.68 52.5 51.63 41.94 53.56 51.88 56.99 51.34 58.23 44.51 61.72 43.96 61.72 41.63 58.63 42.12 59.63 36.71 59.63 36.71"/>
  </g>
</svg>