<?xml version="1.0" encoding="UTF-8"?>
<svg id="Layer_6" data-name="Layer 6" xmlns="http://www.w3.org/2000/svg" viewBox="0 0 104 104">
  <defs>
    <style>
      .cls-1, .cls-2, .cls-3 {
        stroke-width: 0px;
      }

      .cls-2 {
        fill: #f6f6f6;
      }

      .cls-3 {
        fill: #ff7da5;
      }
    </style>
  </defs>
  <rect class="cls-2" width="104" height="104" rx="26" ry="26"/>
  <g>
    <polygon class="cls-3" points="39.45 71.47 51.72 75.71 73.86 59.84 69.75 59.84 69.68 49.55 39.45 71.47"/>
    <g>
      <path class="cls-1" d="m71.4,58.32V23.77l-39.17,6.2v34.55l-11.92,1.89,31.59,11.14.02-.02h.03s31.36-21.1,31.36-21.1l-11.92,1.89Zm-3.6,4.21l-16.38,11.03h-.03s-15.56-5.5-15.56-5.5v-35.02l31.97-5.07v34.55Z"/>
      <g>
        <path class="cls-1" d="m48,42.68v.05c-.03,1.62-1.28,3.09-2.86,3.34-1.56.24-2.82-.85-2.82-2.48s1.26-3.09,2.86-3.34c1.54-.25,2.8.83,2.82,2.44Z"/>
        <path class="cls-1" d="m61.19,52.08c0,1.59-1.27,3.09-2.86,3.34-1.56.24-2.82-.85-2.82-2.48s1.26-3.1,2.85-3.35c1.56-.24,2.83.85,2.83,2.49Z"/>
        <polygon class="cls-1" points="59.68 35.85 48.14 59.15 43.77 59.84 55.31 36.54 59.68 35.85"/>
      </g>
    </g>
  </g>
</svg>