<svg width="600" height="339" viewBox="0 0 600 339" fill="none" xmlns="http://www.w3.org/2000/svg">
<rect y="0.5" width="600" height="338" fill="black" fill-opacity="0.6"/>
<path d="M239.234 192.417H291.419L293.348 179.434H241.163L239.234 192.417Z" fill="white"/>
<path d="M370.819 153.07L372.748 140.083H362.013L363.257 132.474H348.728L341.219 178.448H355.744L359.892 153.07H370.819Z" fill="white"/>
<path d="M288.691 155.41H263.391L264.958 145.845H290.258L292.385 132.858H253.513L251.386 145.845L249.819 155.41L247.695 168.393H286.567L288.691 155.41Z" fill="white"/>
<path d="M333.956 138.559C330.078 134.836 324.933 132.783 319.47 132.783C314.006 132.783 308.862 134.832 304.987 138.559C303.086 140.381 301.594 142.512 300.548 144.887C299.459 147.358 298.906 149.986 298.906 152.687C298.906 155.389 299.459 158.016 300.548 160.487C301.594 162.863 303.086 164.99 304.987 166.812C308.865 170.535 314.01 172.588 319.47 172.588C324.93 172.588 330.078 170.538 333.956 166.812C335.857 164.99 337.349 162.859 338.395 160.487C339.484 158.016 340.037 155.389 340.037 152.687C340.037 149.986 339.484 147.358 338.395 144.887C337.349 142.512 335.857 140.385 333.956 138.559ZM319.47 159.533C315.449 159.533 312.177 156.459 312.177 152.684C312.177 148.908 315.449 145.834 319.47 145.834C323.49 145.834 326.763 148.908 326.763 152.684C326.763 156.459 323.49 159.533 319.47 159.533Z" fill="white"/>
<path d="M229.721 166.099H216.454L217.177 161.575H202.357L201.631 166.135H200.032H182.053L180 178.476H197.979H199.663H213.547L212.94 182.089H204.977H188.399H188.396L188.218 183.16L185.524 198.969H185.481L183.563 210.467H200.142H222.556L224.474 198.969H202.102L203.02 193.583H211.005H224.474H225.091L227.636 178.476H235.248L237.301 166.135H229.714L229.721 166.099Z" fill="white"/>
<path d="M222.433 128.635H206.219L189.875 158.246H206.088L222.433 128.635Z" fill="white"/>
<path d="M213.703 150.588C213.703 155.293 217.61 159.104 222.428 159.104C227.247 159.104 231.154 155.293 231.154 150.588C231.154 145.883 227.247 142.072 222.428 142.072C217.61 142.072 213.703 145.887 213.703 150.588Z" fill="white"/>
<path d="M370.522 164.035L368.923 175.604H388.32L387.477 181.305H387.48L363.258 210.487L378.907 210.349L403.052 181.305H403.041L403.885 175.604H418.105L419.999 164.035H370.522Z" fill="white"/>
<path d="M397.286 160.746C406.32 160.746 413.666 153.513 413.666 144.621C413.666 135.729 406.316 128.5 397.286 128.5C388.256 128.5 380.906 135.733 380.906 144.625C380.906 153.516 388.256 160.749 397.286 160.749V160.746ZM397.286 139.544C400.229 139.544 402.622 141.82 402.622 144.621C402.622 147.422 400.229 149.698 397.286 149.698C394.343 149.698 391.95 147.418 391.95 144.621C391.95 141.824 394.343 139.544 397.286 139.544Z" fill="white"/>
<path d="M406.716 191.544C401.504 191.544 397.281 195.77 397.281 200.979C397.281 206.187 401.507 210.413 406.716 210.413C411.924 210.413 416.154 206.187 416.154 200.979C416.154 195.77 411.927 191.544 406.716 191.544Z" fill="white"/>
</svg>
